<?xml version="1.0" encoding="UTF-8" standalone="no"?>
<svg
   xmlns:dc="http://purl.org/dc/elements/1.1/"
   xmlns:cc="http://creativecommons.org/ns#"
   xmlns:rdf="http://www.w3.org/1999/02/22-rdf-syntax-ns#"
   xmlns:svg="http://www.w3.org/2000/svg"
   xmlns="http://www.w3.org/2000/svg"
   viewBox="0 0 5889.3335 3617.3333"
   height="3617.3333"
   width="5889.3335"
   xml:space="preserve"
   id="svg2"
   version="1.1"><metadata
     id="metadata8"><rdf:RDF><cc:Work
         rdf:about=""><dc:format>image/svg+xml</dc:format><dc:type
           rdf:resource="http://purl.org/dc/dcmitype/StillImage" /></cc:Work></rdf:RDF></metadata><defs
     id="defs6"><clipPath
       id="clipPath20"
       clipPathUnits="userSpaceOnUse"><path
         id="path18"
         d="m 16159.1,1768.7 c -3878.1,0 -7021.99,3074.4 -7021.99,6866.8 0,3792.4 3143.89,6866.8 7021.99,6866.8 640.5,0 1261,-83.9 1850.6,-241 668.3,4254.5 4351.9,7508.9 8795.9,7508.9 4917.8,0 8904.4,-3984.9 8904.4,-8900.5 0,-4915.6 -3986.6,-8900.5 -8904.4,-8900.5 -1503,0 -2919.1,372.3 -4161,1029.6 C 21587.5,3515 19081.9,1768.7 16159.1,1768.7 m 8652.1,16458.7 v 0 c 0.1,0 0.2,0 0.3,0 110.1,0 221.9,14.3 332.6,44.4 0.4,0.1 0.9,0.2 1.3,0.3 80.7,22.3 478.6,141.4 708.5,530.4 228.9,387.5 124.4,760.6 102.1,833.7 -44.3,220.2 -88.7,440.3 -133,660.5 3.3,-0.4 6,-0.8 8,-1 v 0 0 c -1.2,16.1 -16.7,92.9 -39.1,197 -12.5,57.9 -27.2,124.2 -42.7,193.2 -34.2,151.5 -145.5,323.4 -293.8,407 -49.2,27.7 -135,75.1 -237.1,75.1 -20.6,0 -41.9,-1.9 -63.6,-6.3 -16.6,-3.4 -32.1,-7.9 -46.7,-13.1 -66.7,192.9 -267.2,298.5 -475.1,397.5 -365,173.8 -707.1,197.6 -877.3,197.6 -39.4,0 -69.5,-1.3 -88.7,-2.3 -154.5,-7.9 -492.1,-29.2 -829.9,-238.3 -64.1,-39.7 -114.5,-77.7 -149.7,-106 67.9,13 145.5,23.1 231.3,26.5 20.9,0.8 41.3,1.2 61.2,1.2 21,0 41.5,-0.4 61.3,-1.2 -207.9,-93.7 -339.3,-205 -421.8,-291.3 -87.1,-91.2 -109.4,-143.8 -190.5,-211.9 -149.9,-126 -330.6,-162 -462.6,-172.2 2.2,-2.8 4.5,-5.7 6.8,-8.7 -5.2,-0.2 -10.3,-0.3 -15.2,-0.4 79.4,-96.6 266.3,-305.2 534.9,-437.1 152.5,-74.8 309.9,-114.5 323.3,-117.8 100.9,-24.9 198.6,-37.8 230.3,-41.8 32.2,-4.2 60.8,-7.2 84.2,-9.3 -2,-0.4 -4,-0.7 -5.9,-1 -106,-16.4 -209,-26.7 -308.6,-32.1 5.4,-2.3 11.4,-4.9 18.2,-7.8 -9.6,-0.7 -19.1,-1.5 -28.6,-2.2 228.5,-110.9 431.4,-151.2 565.1,-167.5 3.9,-0.5 8.3,-1 13.1,-1.5 0.1,-0.7 0.3,-1.4 0.4,-2 0.1,-0.2 0.1,-0.4 0.2,-0.6 0.1,-0.8 0.3,-1.6 0.5,-2.4 0.1,-0.2 0.1,-0.4 0.2,-0.6 0.2,-0.8 0.4,-1.7 0.6,-2.5 0,-0.1 0,-0.2 0.1,-0.4 0.1,-0.7 0.3,-1.5 0.5,-2.3 0.1,-0.1 0.1,-0.3 0.1,-0.4 0.2,-0.9 0.4,-1.7 0.6,-2.5 0.1,-0.2 0.1,-0.4 0.2,-0.6 0.2,-0.9 0.4,-1.6 0.6,-2.4 0,-0.2 0.1,-0.4 0.1,-0.6 0.2,-0.8 0.4,-1.5 0.6,-2.3 0,-0.1 0.1,-0.2 0.1,-0.4 0.2,-0.8 0.4,-1.6 0.6,-2.4 0.1,-0.2 0.1,-0.5 0.2,-0.7 0.2,-0.8 0.4,-1.6 0.6,-2.4 0.1,-0.2 0.1,-0.3 0.2,-0.6 0.2,-0.8 0.4,-1.6 0.6,-2.5 0,0 0.1,-0.1 0.1,-0.2 0.2,-0.8 0.4,-1.6 0.6,-2.4 0.1,-0.2 0.1,-0.3 0.2,-0.5 0.2,-0.8 0.4,-1.7 0.6,-2.5 0.1,-0.2 0.1,-0.4 0.2,-0.6 0.2,-0.8 0.4,-1.6 0.6,-2.4 0.1,-0.2 0.1,-0.4 0.2,-0.6 0.2,-0.7 0.4,-1.4 0.6,-2.1 0,-0.2 0.1,-0.4 0.1,-0.5 0.2,-0.9 0.5,-1.6 0.7,-2.5 0,-0.2 0.1,-0.4 0.2,-0.6 0.2,-0.8 0.4,-1.6 0.6,-2.4 0.1,-0.2 0.1,-0.4 0.2,-0.6 0.2,-0.8 0.4,-1.5 0.6,-2.3 0.1,-0.1 0.1,-0.2 0.2,-0.4 0.2,-0.7 0.4,-1.6 0.6,-2.4 0.1,-0.2 0.2,-0.4 0.2,-0.6 0.3,-0.8 0.5,-1.6 0.7,-2.4 0.1,-0.2 0.1,-0.4 0.2,-0.6 0.2,-0.8 0.5,-1.6 0.7,-2.5 0.1,-0.1 0.1,-0.2 0.1,-0.4 0.3,-0.7 0.5,-1.5 0.7,-2.2 0.1,-0.2 0.1,-0.4 0.2,-0.6 0.2,-0.8 0.4,-1.6 0.7,-2.4 0,-0.2 0.1,-0.4 0.2,-0.6 0.2,-0.9 0.5,-1.7 0.7,-2.5 0.1,-0.1 0.1,-0.3 0.1,-0.4 0.3,-0.8 0.5,-1.6 0.8,-2.3 0,-0.2 0,-0.3 0.1,-0.4 0.2,-0.9 0.5,-1.7 0.7,-2.6 0.1,-0.1 0.2,-0.3 0.2,-0.5 0.3,-0.8 0.5,-1.7 0.8,-2.5 0,-0.1 0.1,-0.3 0.1,-0.4 0.3,-0.9 0.6,-1.8 0.9,-2.7 v 0 l 259.5,-821.2 c 26.1,-82.5 61.8,-160.2 105.8,-232.2 211.5,-346.6 612.7,-561.6 1039.5,-562 0.4,0 0.8,0 1.2,0 v 0" /></clipPath><linearGradient
       id="linearGradient34"
       spreadMethod="pad"
       gradientTransform="matrix(-26572.9,0,0,-26572.9,35710,12269.4)"
       gradientUnits="userSpaceOnUse"
       y2="0"
       x2="1"
       y1="0"
       x1="0"><stop
         id="stop24"
         offset="0"
         style="stop-opacity:1;stop-color:#4849b7" /><stop
         id="stop26"
         offset="0.186486"
         style="stop-opacity:1;stop-color:#4849b7" /><stop
         id="stop28"
         offset="0.527027"
         style="stop-opacity:1;stop-color:#30206e" /><stop
         id="stop30"
         offset="0.95870956"
         style="stop-opacity:1;stop-color:#30206e" /><stop
         id="stop32"
         offset="1"
         style="stop-opacity:1;stop-color:#30206e" /></linearGradient><clipPath
       id="clipPath152"
       clipPathUnits="userSpaceOnUse"><path
         id="path150"
         d="m 23720.5,20071 c -100.7,0 -184.2,5.8 -247.6,15.7 -114.9,17.9 -224.7,47 -224.7,47 -86.6,23 -183.7,54.5 -287.8,98.2 100.8,9.9 203.5,22.5 308,38.1 12.4,1.8 24.5,4 36.9,5.9 -36.5,4.2 -71.9,8.9 -106,13.9 -128.7,12.1 -331.1,46.8 -551.4,156.8 -33.8,16.9 -94.8,48.5 -166.5,96.8 -129,86.7 -221.7,178.8 -282.9,248 -35.4,-15.5 -81.2,-31.6 -136,-41.8 -32.7,-6.1 -62.8,-9 -89.5,-10.1 -2.3,3 -4.6,5.9 -6.8,8.7 132,10.2 312.7,46.2 462.6,172.2 81.1,68.1 103.4,120.7 190.5,211.9 82.5,86.3 213.9,197.6 421.8,291.3 -19.8,0.8 -40.3,1.2 -61.3,1.2 -19.9,0 -40.3,-0.4 -61.2,-1.2 -85.8,-3.4 -163.4,-13.5 -231.3,-26.5 35.2,28.3 85.6,66.3 149.7,106 337.8,209.1 675.4,230.4 829.9,238.3 19.2,1 49.3,2.3 88.7,2.3 170.2,0 512.3,-23.8 877.3,-197.6 207.9,-99 408.4,-204.6 475.1,-397.5 -63.9,-23.1 -108.6,-61.4 -133.5,-86.2 -26.8,-26.6 -59.8,-64.3 -90.2,-129.7 -25.6,-55.1 -134.9,-290.2 -67,-508.2 -91,-90.7 -212.1,-191.9 -366.6,-279.2 -289.6,-53.5 -540.3,-74.3 -730.2,-74.3 m -886.3,21.2 c -6.8,2.9 -12.8,5.5 -18.2,7.8 99.6,5.4 202.6,15.7 308.6,32.1 1.9,0.3 3.9,0.6 5.9,1 7,-0.7 13.6,-1.3 19.6,-1.8 -12.2,-2 -24.5,-4 -36.9,-5.9 -95.1,-14.8 -188.2,-25.7 -279,-33.2" /></clipPath><linearGradient
       id="linearGradient162"
       spreadMethod="pad"
       gradientTransform="matrix(3167.29,0,0,-3167.29,21966.2,20837.3)"
       gradientUnits="userSpaceOnUse"
       y2="0"
       x2="1"
       y1="0"
       x1="0"><stop
         id="stop156"
         offset="0"
         style="stop-opacity:1;stop-color:#0e0f18" /><stop
         id="stop158"
         offset="0.640704"
         style="stop-opacity:1;stop-color:#1c1e30" /><stop
         id="stop160"
         offset="1"
         style="stop-opacity:1;stop-color:#1c1e30" /></linearGradient><clipPath
       id="clipPath172"
       clipPathUnits="userSpaceOnUse"><path
         id="path170"
         d="m 25248.8,19734.5 c -6.4,48.6 -20.3,116 -54.1,190.7 -24.2,53.6 -48.4,88.8 -79.4,133.1 -78.5,112.3 -111.1,122.9 -233,273.5 -23.7,29.3 -44.5,56.1 -57.5,70.9 -2.7,7.2 -5.2,14.5 -7.5,21.8 -67.9,218 41.4,453.1 67,508.2 30.4,65.4 63.4,103.1 90.2,129.7 24.9,24.8 69.6,63.1 133.5,86.2 14.6,5.2 30.1,9.7 46.7,13.1 21.7,4.4 43,6.3 63.6,6.3 102.1,0 187.9,-47.4 237.1,-75.1 148.3,-83.6 259.6,-255.5 293.8,-407 15.5,-69 30.2,-135.3 42.7,-193.2 22.4,-104.1 37.9,-180.9 39.1,-197 -2,0.2 -4.7,0.6 -8,1 -12.3,1.4 -33.5,3.2 -60.3,3.2 -77.5,0 -201.8,-15.6 -292.2,-103.4 -55.2,-53.7 -77.2,-114.2 -87.2,-142.8 -46.2,-132.2 -9.6,-248.6 7,-292.8 -47.2,-8.8 -94.4,-17.6 -141.5,-26.4" /></clipPath><linearGradient
       id="linearGradient182"
       spreadMethod="pad"
       gradientTransform="matrix(1035.47,-0.447811,0.447811,-1055.75,24795.5,20448.3)"
       gradientUnits="userSpaceOnUse"
       y2="0"
       x2="1"
       y1="0"
       x1="0"><stop
         id="stop176"
         offset="0"
         style="stop-opacity:1;stop-color:#0e0f18" /><stop
         id="stop178"
         offset="0.640704"
         style="stop-opacity:1;stop-color:#1c1e30" /><stop
         id="stop180"
         offset="1"
         style="stop-opacity:1;stop-color:#1c1e30" /></linearGradient><clipPath
       id="clipPath258"
       clipPathUnits="userSpaceOnUse"><path
         id="path256"
         d="m 23383.8,19921 c -4.8,0.5 -9.2,1 -13.1,1.5 -133.7,16.3 -336.6,56.6 -565.1,167.5 9.5,0.7 19,1.5 28.6,2.2 85.6,-36.1 284.7,-112.7 543.9,-145.6 0.1,-0.5 0.3,-1 0.3,-1.4 0.1,-0.2 0.1,-0.4 0.1,-0.5 0.2,-0.9 0.4,-1.8 0.6,-2.6 0,-0.1 0,-0.2 0,-0.2 0.2,-0.9 0.4,-1.7 0.6,-2.5 0,-0.1 0,-0.3 0.1,-0.5 0.1,-0.8 0.3,-1.6 0.5,-2.5 0,-0.1 0.1,-0.3 0.1,-0.5 0.2,-0.8 0.4,-1.7 0.6,-2.5 0,-0.2 0,-0.2 0,-0.4 0.2,-0.8 0.4,-1.6 0.6,-2.5 0,-0.1 0,-0.1 0,-0.2 0.2,-0.9 0.4,-1.7 0.6,-2.5 0.1,-0.3 0.1,-0.4 0.1,-0.6 0.2,-0.9 0.4,-1.6 0.6,-2.5 0,-0.2 0.1,-0.4 0.1,-0.6 0.2,-0.8 0.4,-1.5 0.6,-2.3 0,-0.2 0,-0.3 0.1,-0.5 0,-0.1 0,-0.2 0.1,-0.3" /></clipPath><linearGradient
       id="linearGradient272"
       spreadMethod="pad"
       gradientTransform="matrix(-26572.9,0,0,-26572.9,35710,12269.4)"
       gradientUnits="userSpaceOnUse"
       y2="0"
       x2="1"
       y1="0"
       x1="0"><stop
         id="stop262"
         offset="0"
         style="stop-opacity:1;stop-color:#d5beba" /><stop
         id="stop264"
         offset="0.186486"
         style="stop-opacity:1;stop-color:#d5beba" /><stop
         id="stop266"
         offset="0.527027"
         style="stop-opacity:1;stop-color:#d3bab2" /><stop
         id="stop268"
         offset="0.95870956"
         style="stop-opacity:1;stop-color:#d3bab2" /><stop
         id="stop270"
         offset="1"
         style="stop-opacity:1;stop-color:#d3bab2" /></linearGradient><clipPath
       id="clipPath290"
       clipPathUnits="userSpaceOnUse"><path
         id="path288"
         d="m 23130.5,20133.1 c -23.4,2.1 -52,5.1 -84.2,9.3 -31.7,4 -129.4,16.9 -230.3,41.8 -13.4,3.3 -170.8,43 -323.3,117.8 -268.6,131.9 -455.5,340.5 -534.9,437.1 4.9,0.1 10,0.2 15.2,0.4 86.2,-110.4 253.4,-293.1 523.8,-428.3 222.9,-111.5 427.7,-146.8 557.9,-159 34.5,-5 70.3,-9.8 107.2,-14 -10.4,-1.8 -20.9,-3.5 -31.4,-5.1" /></clipPath><linearGradient
       id="linearGradient304"
       spreadMethod="pad"
       gradientTransform="matrix(-26572.9,0,0,-26572.9,35710,12269.4)"
       gradientUnits="userSpaceOnUse"
       y2="0"
       x2="1"
       y1="0"
       x1="0"><stop
         id="stop294"
         offset="0"
         style="stop-opacity:1;stop-color:#d5beba" /><stop
         id="stop296"
         offset="0.186486"
         style="stop-opacity:1;stop-color:#d5beba" /><stop
         id="stop298"
         offset="0.527027"
         style="stop-opacity:1;stop-color:#d3bab2" /><stop
         id="stop300"
         offset="0.95870956"
         style="stop-opacity:1;stop-color:#d3bab2" /><stop
         id="stop302"
         offset="1"
         style="stop-opacity:1;stop-color:#d3bab2" /></linearGradient><clipPath
       id="clipPath314"
       clipPathUnits="userSpaceOnUse"><path
         id="path312"
         d="m 23621.1,19931 c -5.2,0 -10.5,0 -15.7,0.1 -79.6,0.7 -155.7,6.4 -227.3,15.5 v 0 c -259.2,32.9 -458.3,109.5 -543.9,145.6 90.8,7.5 183.9,18.4 279,33.2 12.4,1.9 24.7,3.9 36.9,5.9 -6,0.5 -12.6,1.1 -19.6,1.8 10.5,1.6 21,3.3 31.4,5.1 -36.9,4.2 -72.7,9 -107.2,14 -130.2,12.2 -335,47.5 -557.9,159 -270.4,135.2 -437.6,317.9 -523.8,428.3 26.7,1.1 56.8,4 89.5,10.1 54.8,10.2 100.6,26.3 136,41.8 61.2,-69.2 153.9,-161.3 282.9,-248 71.7,-48.3 132.7,-79.9 166.5,-96.8 220.3,-110 422.7,-144.7 551.4,-156.8 34.1,-5 69.5,-9.7 106,-13.9 -12.4,-1.9 -24.5,-4.1 -36.9,-5.9 -104.5,-15.6 -207.2,-28.2 -308,-38.1 104.1,-43.7 201.2,-75.2 287.8,-98.2 0,0 109.8,-29.1 224.7,-47 63.4,-9.9 146.9,-15.7 247.6,-15.7 189.9,0 440.6,20.8 730.2,74.3 -45.2,-25.6 -93.3,-49.9 -144.3,-72.5 -238.4,-105.4 -473.7,-141.8 -685.3,-141.8" /></clipPath><linearGradient
       id="linearGradient324"
       spreadMethod="pad"
       gradientTransform="matrix(3167.29,0,0,-3167.29,21966.2,20837.3)"
       gradientUnits="userSpaceOnUse"
       y2="0"
       x2="1"
       y1="0"
       x1="0"><stop
         id="stop318"
         offset="0"
         style="stop-opacity:1;stop-color:#cfb8a9" /><stop
         id="stop320"
         offset="0.640704"
         style="stop-opacity:1;stop-color:#d1b9ac" /><stop
         id="stop322"
         offset="1"
         style="stop-opacity:1;stop-color:#d1b9ac" /></linearGradient><clipPath
       id="clipPath338"
       clipPathUnits="userSpaceOnUse"><path
         id="path336"
         d="m 25215.3,19728.3 c -5.9,48.2 -19.6,118 -55.3,195.3 -27.8,60.1 -56.9,102.2 -80,131.2 -147.8,185 -221.8,277.5 -225.4,283.9 -12,21 -21.8,42.3 -29.8,64 13,-14.8 33.8,-41.6 57.5,-70.9 121.9,-150.6 154.5,-161.2 233,-273.5 31,-44.3 55.2,-79.5 79.4,-133.1 33.8,-74.7 47.7,-142.1 54.1,-190.7 -11.2,-2.1 -22.3,-4.1 -33.5,-6.2" /></clipPath><linearGradient
       id="linearGradient348"
       spreadMethod="pad"
       gradientTransform="matrix(1035.47,-0.447811,0.447811,-1055.75,24795.5,20448.3)"
       gradientUnits="userSpaceOnUse"
       y2="0"
       x2="1"
       y1="0"
       x1="0"><stop
         id="stop342"
         offset="0"
         style="stop-opacity:1;stop-color:#bda691" /><stop
         id="stop344"
         offset="0.640704"
         style="stop-opacity:1;stop-color:#bfa794" /><stop
         id="stop346"
         offset="1"
         style="stop-opacity:1;stop-color:#bfa794" /></linearGradient><clipPath
       id="clipPath590"
       clipPathUnits="userSpaceOnUse"><path
         id="path588"
         d="m 13365.3,18906.5 c -56.8,-1195.6 -1436.7,-1825.4 -1726.8,-1957.8 -640.4,-292.2 -1992.34,-664.5 -2679.32,0 -920.14,890.2 -276.76,3281.8 1078.02,3988.9 455.8,237.8 892.4,233 1078,219.8 1107.1,-78.5 2305.2,-1090.9 2250.1,-2250.9 z" /></clipPath><linearGradient
       id="linearGradient602"
       spreadMethod="pad"
       gradientTransform="matrix(4838.95,0,0,-4838.95,8528.21,18869.8)"
       gradientUnits="userSpaceOnUse"
       y2="0"
       x2="1"
       y1="0"
       x1="0"><stop
         id="stop594"
         offset="0"
         style="stop-opacity:1;stop-color:#30206e" /><stop
         id="stop596"
         offset="0.63395701"
         style="stop-opacity:1;stop-color:#30206e" /><stop
         id="stop598"
         offset="0.694595"
         style="stop-opacity:1;stop-color:#30206e" /><stop
         id="stop600"
         offset="1"
         style="stop-opacity:1;stop-color:#30206e" /></linearGradient></defs><g
     transform="matrix(1.3333333,0,0,-1.3333333,0,3617.3333)"
     id="g10"><g
       transform="scale(0.1)"
       id="g12"><g
         id="g14"><g
           clip-path="url(#clipPath20)"
           id="g16"><g
             transform="scale(2.1908)"
             id="g22"><path
               id="path36"
               style="fill:url(#linearGradient34);fill-opacity:1;fill-rule:nonzero;stroke:none"
               d="m 7375.9,807.333 c -1770.18,0 -3205.22,1403.327 -3205.22,3134.387 0,1731.06 1435.04,3134.38 3205.22,3134.38 292.36,0 575.59,-38.3 844.71,-110.01 305.05,1942 1986.49,3427.41 4014.89,3427.41 2244.8,0 4064.5,-1818.88 4064.5,-4062.61 0,-2243.75 -1819.7,-4062.68 -4064.5,-4062.68 -686,0 -1332.4,169.94 -1899.3,469.97 C 9853.72,1604.44 8710.02,807.333 7375.9,807.333 m 3949.3,7512.657 v 0 c 0,0 0.1,0 0.1,0 50.3,0 101.3,6.54 151.8,20.25 0.2,0.05 0.5,0.11 0.6,0.17 36.9,10.17 218.5,64.53 323.4,242.1 104.5,176.87 56.8,347.14 46.6,380.54 -20.2,100.49 -40.4,200.97 -60.7,301.46 1.5,-0.17 2.8,-0.33 3.7,-0.44 v 0 0 c -0.6,7.36 -7.6,42.41 -17.9,89.9 -5.7,26.43 -12.4,56.7 -19.5,88.2 -15.6,69.14 -66.4,147.63 -134.1,185.76 -22.4,12.65 -61.6,34.31 -108.2,34.31 -9.4,0 -19.1,-0.88 -29,-2.89 -7.6,-1.53 -14.7,-3.58 -21.3,-5.98 -30.5,88.08 -122,136.27 -216.9,181.45 -166.6,79.33 -322.8,90.2 -400.4,90.2 -18,0 -31.8,-0.59 -40.5,-1.04 -70.6,-3.62 -224.7,-13.33 -378.8,-108.8 -29.3,-18.1 -52.3,-35.44 -68.4,-48.37 31,5.92 66.4,10.55 105.6,12.1 9.5,0.37 18.9,0.54 27.9,0.54 9.6,0 19,-0.19 28,-0.54 -94.9,-42.79 -154.9,-93.56 -192.5,-132.99 -39.8,-41.63 -49.9,-65.63 -87,-96.73 -68.4,-57.49 -150.9,-73.91 -211.1,-78.58 1,-1.3 2,-2.61 3.1,-3.96 -2.4,-0.09 -4.7,-0.15 -7,-0.19 36.3,-44.11 121.6,-139.32 244.2,-199.51 69.6,-34.17 141.5,-52.26 147.6,-53.76 46,-11.37 90.6,-17.25 105.1,-19.12 14.7,-1.9 27.7,-3.26 38.4,-4.24 -0.9,-0.14 -1.8,-0.28 -2.7,-0.42 -48.3,-7.51 -95.4,-12.22 -140.8,-14.66 2.4,-1.06 5.2,-2.25 8.3,-3.55 -4.4,-0.36 -8.7,-0.7 -13.1,-1.02 104.3,-50.64 196.9,-69.04 258,-76.46 1.7,-0.22 3.8,-0.46 5.9,-0.7 0.1,-0.29 0.2,-0.61 0.2,-0.9 0.1,-0.08 0.1,-0.17 0.1,-0.25 0.1,-0.38 0.2,-0.75 0.3,-1.12 0,-0.1 0,-0.17 0,-0.27 0.1,-0.37 0.2,-0.76 0.3,-1.13 0,-0.06 0,-0.12 0.1,-0.19 0,-0.34 0.1,-0.7 0.2,-1.04 0,-0.08 0,-0.14 0,-0.22 0.1,-0.37 0.2,-0.73 0.3,-1.11 0.1,-0.11 0.1,-0.19 0.1,-0.3 0.1,-0.38 0.2,-0.72 0.3,-1.09 0,-0.08 0,-0.19 0,-0.27 0.1,-0.35 0.2,-0.69 0.3,-1.03 0,-0.05 0,-0.12 0,-0.18 0.1,-0.37 0.2,-0.73 0.3,-1.1 0.1,-0.1 0.1,-0.22 0.1,-0.32 0.1,-0.36 0.2,-0.72 0.3,-1.09 0,-0.09 0,-0.17 0.1,-0.27 0.1,-0.38 0.2,-0.77 0.2,-1.14 0,-0.04 0.1,-0.08 0.1,-0.12 0.1,-0.35 0.2,-0.73 0.3,-1.09 0,-0.08 0,-0.15 0.1,-0.23 0,-0.36 0.1,-0.76 0.2,-1.12 0.1,-0.1 0.1,-0.18 0.1,-0.28 0.1,-0.37 0.2,-0.73 0.3,-1.1 0,-0.09 0,-0.17 0.1,-0.26 0.1,-0.32 0.2,-0.67 0.3,-0.99 0,-0.08 0,-0.15 0,-0.23 0.1,-0.38 0.2,-0.73 0.3,-1.11 0,-0.09 0.1,-0.19 0.1,-0.29 0.1,-0.36 0.2,-0.74 0.3,-1.1 0,-0.08 0,-0.19 0.1,-0.27 0.1,-0.35 0.2,-0.7 0.3,-1.04 0,-0.06 0,-0.11 0,-0.17 0.1,-0.36 0.2,-0.75 0.3,-1.11 0.1,-0.1 0.1,-0.18 0.1,-0.27 0.1,-0.38 0.2,-0.74 0.3,-1.12 0.1,-0.09 0.1,-0.17 0.1,-0.27 0.1,-0.37 0.2,-0.74 0.3,-1.12 0.1,-0.07 0.1,-0.13 0.1,-0.19 0.1,-0.35 0.2,-0.68 0.3,-1.03 0.1,-0.08 0.1,-0.16 0.1,-0.24 0.1,-0.37 0.2,-0.73 0.3,-1.11 0,-0.09 0.1,-0.19 0.1,-0.29 0.1,-0.37 0.2,-0.75 0.3,-1.12 0.1,-0.06 0.1,-0.13 0.1,-0.19 0.1,-0.35 0.2,-0.71 0.3,-1.06 0,-0.06 0,-0.13 0.1,-0.19 0.1,-0.39 0.2,-0.75 0.3,-1.14 0,-0.08 0.1,-0.16 0.1,-0.24 0.1,-0.37 0.2,-0.78 0.4,-1.15 0,-0.07 0,-0.13 0,-0.2 0.1,-0.41 0.3,-0.8 0.4,-1.2 v 0 l 118.5,-374.84 c 11.9,-37.7 28.2,-73.16 48.3,-106.02 96.5,-158.18 279.6,-256.33 474.4,-256.51 0.2,0 0.4,0 0.6,0 v 0" /></g></g></g><g
         transform="scale(2.27301)"
         id="g38"><path
           id="path40"
           style="fill:#868686;fill-opacity:1;fill-rule:nonzero;stroke:none"
           d="M 16300,692.65 H 3101.62 v 88.079 H 16300 V 692.65" /></g><g
         transform="scale(1.50563)"
         id="g42"><path
           id="path44"
           style="fill:#e6c719;fill-opacity:1;fill-rule:nonzero;stroke:none"
           d="m 14464.5,15639.5 -82.8,-6.1 c 0.9,-12.9 1.4,-25.8 1.4,-38.5 0,-69.8 -13.9,-136.7 -39.2,-198.4 -37.9,-92.5 -101.9,-173.3 -183.9,-232.8 -82.1,-59.5 -181.7,-97.6 -291.9,-105.3 -13.5,-0.9 -26.9,-1.4 -40.1,-1.4 -72.4,0 -141.8,13.7 -205.5,38.6 -95.8,37.3 -178.8,100 -239.6,179.7 -60.8,79.8 -99.4,176 -107.2,282.3 -0.9,12.9 -1.4,25.8 -1.4,38.5 0,69.8 13.8,136.7 39.1,198.4 37.9,92.5 102,173.3 183.9,232.8 82.1,59.5 181.8,97.6 292,105.3 13.5,0.9 26.8,1.3 40,1.3 72.4,0 141.8,-13.6 205.6,-38.5 95.6,-37.3 178.7,-100 239.6,-179.7 60.7,-79.8 99.4,-176 107.2,-282.3 l 82.8,6.1 82.7,6 c -6.7,92.8 -31.7,180.5 -71.2,259.5 -59.2,118.4 -150.9,217 -262.6,286.2 -111.8,69.1 -244.1,108.8 -384.1,108.8 -17,0 -34.2,-0.6 -51.4,-1.8 -94.5,-6.5 -183.7,-30.7 -264.2,-68.9 -120.8,-57.5 -221.9,-146.6 -293.1,-256 -71.2,-109.4 -112.4,-239.4 -112.4,-377.2 0,-16.7 0.6,-33.6 1.9,-50.6 6.7,-92.8 31.7,-180.6 71.2,-259.5 59.3,-118.4 150.9,-217 262.7,-286.2 111.8,-69.1 244,-108.8 384,-108.8 17.1,0 34.2,0.6 51.5,1.8 94.4,6.5 183.6,30.6 264.1,68.9 120.8,57.5 222,146.6 293.2,256 71.2,109.4 112.3,239.4 112.3,377.2 0,16.7 -0.6,33.6 -1.9,50.6 l -82.7,-6" /></g><g
         transform="scale(1.52087)"
         id="g46"><path
           id="path48"
           style="fill:#e6c719;fill-opacity:1;fill-rule:nonzero;stroke:none"
           d="m 13698.8,16076.3 h -15.8 c -58.7,0 -106.8,48.1 -106.8,106.8 v 10.1 c 0,58.7 48.1,106.8 106.8,106.8 h 15.8 c 58.7,0 106.9,-48.1 106.9,-106.8 v -10.1 c 0,-58.7 -48.2,-106.8 -106.9,-106.8" /></g><g
         transform="scale(1.38182)"
         id="g50"><path
           id="path52"
           style="fill:#e6c719;fill-opacity:1;fill-rule:nonzero;stroke:none"
           d="m 15076.1,16053.8 h -17.3 c -64.7,0 -117.6,52.9 -117.6,117.6 v 11 c 0,64.7 52.9,117.6 117.6,117.6 h 17.3 c 64.7,0 117.6,-52.9 117.6,-117.6 v -11 c 0,-64.7 -52.9,-117.6 -117.6,-117.6" /></g><g
         transform="scale(1.45099)"
         id="g54"><path
           id="path56"
           style="fill:#e6c719;fill-opacity:1;fill-rule:nonzero;stroke:none"
           d="m 15150.8,16065.5 h -16.5 c -61.5,0 -112,50.4 -112,112 v 10.5 c 0,61.6 50.5,112 112,112 h 16.5 c 61.7,0 112,-50.4 112,-112 v -10.5 c 0,-61.6 -50.3,-112 -112,-112" /></g><g
         transform="scale(1.45099)"
         id="g58"><path
           id="path60"
           style="fill:#e6c719;fill-opacity:1;fill-rule:nonzero;stroke:none"
           d="m 13559.2,16065.5 h -16.4 c -61.7,0 -112,50.4 -112,112 v 10.5 c 0,61.6 50.3,112 112,112 h 16.4 c 61.6,0 112,-50.4 112,-112 v -10.5 c 0,-61.6 -50.4,-112 -112,-112" /></g><g
         transform="scale(1.51292)"
         id="g62"><path
           id="path64"
           style="fill:#e6c719;fill-opacity:1;fill-rule:nonzero;stroke:none"
           d="m 14133.8,16041.8 -78.4,48.3 c -32,19.7 -41.7,61.5 -21.5,92.7 l 49.5,76.5 c 20.3,31.3 63,40.7 95.2,21 l 78.4,-48.3 c 32,-19.7 41.7,-61.5 21.4,-92.7 l -49.4,-76.5 c -20.3,-31.3 -63.1,-40.7 -95.2,-21" /></g><g
         transform="scale(1.39293)"
         id="g66"><path
           id="path68"
           style="fill:#e6c719;fill-opacity:1;fill-rule:nonzero;stroke:none"
           d="m 14521.1,16019.3 -87.2,49.1 c -35.7,20.1 -48,65 -27.3,99.7 l 50.3,85.1 c 20.6,34.8 66.6,46.8 102.3,26.7 l 87.2,-49.1 c 35.7,-20.1 48,-65 27.4,-99.8 l -50.3,-85 c -20.6,-34.8 -66.7,-46.8 -102.4,-26.7" /></g><g
         transform="scale(1.41911)"
         id="g70"><path
           id="path72"
           style="fill:#e6c719;fill-opacity:1;fill-rule:nonzero;stroke:none"
           d="m 15362.6,16024.7 -88,43.8 c -36.1,18 -50.4,61.4 -32,96.5 l 44.9,85.8 c 18.4,35.2 62.9,49.2 99,31.3 l 88,-43.9 c 36,-17.9 50.4,-61.3 32,-96.4 l -44.9,-85.9 c -18.4,-35.1 -63,-49.1 -99,-31.2" /></g><g
         transform="scale(1.4899)"
         id="g74"><path
           id="path76"
           style="fill:#e6c719;fill-opacity:1;fill-rule:nonzero;stroke:none"
           d="m 13287.3,16037.8 -79.9,48.6 c -32.7,19.9 -42.8,62.2 -22.4,94.1 l 49.9,77.8 c 20.4,31.9 63.8,41.7 96.5,21.8 l 79.9,-48.6 c 32.6,-19.9 42.7,-62.2 22.3,-94.1 l -49.8,-77.8 c -20.4,-31.9 -63.8,-41.7 -96.5,-21.8" /></g><g
         transform="scale(1.48766)"
         id="g78"><path
           id="path80"
           style="fill:#e6c719;fill-opacity:1;fill-rule:nonzero;stroke:none"
           d="m 14596.4,16062.2 -47.1,79.6 c -19.3,32.6 -7.7,74.6 25.7,93.4 l 81.6,46 c 33.5,18.8 76.5,7.5 95.8,-25 l 47.2,-79.7 c 19.3,-32.5 7.7,-74.6 -25.7,-93.4 l -81.6,-45.9 c -33.4,-18.8 -76.6,-7.6 -95.9,25" /></g><g
         transform="scale(1.41814)"
         id="g82"><path
           id="path84"
           style="fill:#e6c719;fill-opacity:1;fill-rule:nonzero;stroke:none"
           d="m 13895.2,16046.8 -52.9,81.5 c -21.7,33.4 -11.4,77.9 22.8,99 l 83.6,51.6 c 34.2,21.1 79.9,11.1 101.5,-22.2 l 52.9,-81.5 c 21.6,-33.4 11.4,-77.9 -22.8,-99 l -83.5,-51.6 c -34.2,-21.1 -79.9,-11.1 -101.6,22.2" /></g><g
         transform="scale(1.39398)"
         id="g86"><path
           id="path88"
           style="fill:#e6c719;fill-opacity:1;fill-rule:nonzero;stroke:none"
           d="m 15268.2,16046.2 -50.3,85 c -20.6,34.7 -8.3,79.6 27.4,99.7 l 87.2,49 c 35.6,20.1 81.6,8.1 102.2,-26.7 l 50.3,-85 c 20.6,-34.7 8.3,-79.6 -27.4,-99.7 l -87.1,-49 c -35.7,-20.1 -81.7,-8.1 -102.3,26.7" /></g><g
         transform="scale(1.514)"
         id="g90"><path
           id="path92"
           style="fill:#e6c719;fill-opacity:1;fill-rule:nonzero;stroke:none"
           d="m 13299.2,16062.8 -49.7,76.3 c -20.3,31.2 -10.7,72.9 21.3,92.7 l 78.2,48.4 c 32.1,19.8 74.9,10.5 95.2,-20.8 l 49.6,-76.2 c 20.3,-31.3 10.7,-73 -21.3,-92.8 l -78.2,-48.4 c -32.1,-19.7 -74.9,-10.4 -95.1,20.8" /></g><g
         transform="scale(1.48061)"
         id="g94"><path
           id="path96"
           style="fill:#e6c719;fill-opacity:1;fill-rule:nonzero;stroke:none"
           d="m 14458.9,15888.2 -50.6,-3.7 c 0.7,-8.1 0.9,-16.2 0.9,-24.2 0,-87.5 -34.6,-168.2 -92.4,-229 -57.9,-60.8 -138.5,-101.3 -230.6,-107.7 -8.4,-0.6 -16.8,-0.8 -25.1,-0.8 -90.7,0 -174.1,34.2 -236.6,90.7 -31.1,28.2 -57,61.9 -75.8,99.6 -18.9,37.7 -30.7,79.3 -34,123.8 -0.6,8.2 -0.9,16.2 -0.9,24.3 0,87.5 34.6,168.1 92.5,229 57.8,60.8 138.4,101.2 230.5,107.6 8.4,0.6 16.8,0.9 25.1,0.9 90.7,0 174.1,-34.2 236.6,-90.7 31.2,-28.2 57,-62 75.9,-99.7 18.8,-37.7 30.7,-79.3 33.9,-123.8 v 0 l 50.6,3.7 50.5,3.7 c -4.2,57.9 -19.8,112.5 -44.4,161.7 -36.9,73.9 -94.1,135.4 -163.7,178.5 -69.7,43.1 -152.1,67.9 -239.4,67.9 -10.6,0 -21.3,-0.4 -32.1,-1.1 -117.7,-8.1 -222.2,-60.2 -296.9,-138.9 -74.9,-78.6 -120.4,-184.3 -120.4,-298.8 0,-10.5 0.4,-21 1.2,-31.6 4.2,-57.9 19.8,-112.6 44.3,-161.8 37,-73.8 94.1,-135.4 163.8,-178.5 69.7,-43.1 152.1,-67.9 239.3,-67.9 10.7,0 21.4,0.4 32.1,1.2 117.8,8.1 222.3,60.2 297,138.8 74.8,78.6 120.3,184.3 120.3,298.9 0,10.4 -0.4,21 -1.1,31.6 v 0 l -50.5,-3.7" /></g><g
         transform="scale(2.70982)"
         id="g98"><path
           id="path100"
           style="fill:#0f1333;fill-opacity:1;fill-rule:nonzero;stroke:none"
           d="M 16298.2,1.84514 V 3.69029 H 3.68885 L 3.69029,10008.1 H 16296.3 V 1.84514 h 1.9 V 3.69029 1.84514 h 1.8 V 10011.7 H 0 V 0 h 16300 v 1.84514 h -1.8" /></g><g
         transform="scale(1.58106)"
         id="g102"><path
           id="path104"
           style="fill:#d1b79f;fill-opacity:1;fill-rule:nonzero;stroke:none"
           d="m 16013.5,11820.2 c 95.6,-136.2 191.1,-272.5 286.5,-408.8" /></g><g
         transform="scale(1.60417)"
         id="g106"><path
           id="path108"
           style="fill:#d1b79f;fill-opacity:1;fill-rule:nonzero;stroke:none"
           d="m 15886.1,11722.3 339.3,-362.9 c 74.6,-79.8 70.4,-204.9 -9.4,-279.5 -79.7,-74.6 -204.7,-70.4 -279.4,9.4 -12.7,13.6 -23.6,29.5 -31.7,45.3 l -225.4,442.9 c -31.9,62.7 -7,139.4 55.7,171.4 51.8,26.3 113.1,13.8 150.9,-26.6" /></g><g
         transform="scale(1.64146)"
         id="g110"><path
           id="path112"
           style="fill:#bd931c;fill-opacity:1;fill-rule:nonzero;stroke:none"
           d="m 16015,10497.9 264.8,-1904.27 1.6,-10.84 c 18.6,-133.73 -74.7,-257.21 -208.4,-275.79 -3.6,-0.55 -8.2,-1.04 -11.9,-1.35 l -2504.2,-224.06 c -79.5,-7.07 -149.7,51.6 -156.8,131.16 -6.7,75.05 45.7,141.95 118.5,155.23 l 2474.8,443.38 -218.7,-288.03 -264.9,1904.17 c -19.4,139.6 78,268.5 217.5,287.9 139.5,19.4 268.3,-78 287.7,-217.5" /></g><g
         transform="scale(1.69087)"
         id="g114"><path
           id="path116"
           style="fill:#e6c719;fill-opacity:1;fill-rule:nonzero;stroke:none"
           d="m 15585.5,10001.2 c 210.3,-347.21 514.7,-952.28 613,-1754.06 101.5,-827.92 -62.1,-1494.8 -189.2,-1876.38" /></g><g
         transform="scale(1.7426)"
         id="g118"><path
           id="path120"
           style="fill:#e6c719;fill-opacity:1;fill-rule:nonzero;stroke:none"
           d="m 15687.6,10046.8 c 83.1,-154.31 159.5,-312.21 226.1,-473.87 66.9,-161.54 125.4,-326.35 175,-493.57 l 18.2,-62.84 9.1,-31.39 c 2.9,-10.5 5.5,-21.06 8.3,-31.62 l 16.5,-63.29 8.1,-31.62 4.1,-15.78 3.7,-15.96 28.9,-127.39 25.1,-128.14 c 31.1,-171.3 52.7,-343.92 65.7,-516.76 23.6,-345.98 12.4,-693.22 -39.6,-1032.6 -25.6,-169.68 -60.3,-337.42 -103.9,-502.29 -5.1,-20.72 -11.2,-41.15 -16.9,-61.69 l -17.4,-61.52 -18.7,-61.05 c -6.3,-20.32 -12.3,-40.69 -19.2,-60.89 -25.5,-81.2 -57.4,-159.99 -79.1,-242.11 l -0.4,-1.55 c -66.5,-252.67 -325.2,-403.59 -577.7,-337.02 -252.6,66.5 -403.5,325.26 -336.9,577.92 5.1,19.46 12.4,40.86 19.8,59.05 12.8,31.45 23,63.82 30.8,96.81 8.4,32.83 15.3,66 22.5,99.05 3.8,16.47 6.8,33.17 10.1,49.75 l 9.7,49.76 8.5,49.98 c 2.7,16.64 5.9,33.17 8.2,49.92 20.4,133.42 33.6,267.42 39.4,401.24 l 1.8,50.16 c 0.5,16.75 1.5,33.4 1.3,50.15 l 0.3,100.14 -2.7,99.91 -0.4,12.45 -0.8,12.51 -1.5,24.91 -2.9,49.75 c -1.4,33.17 -5.4,66.28 -8.4,99.28 l -4.6,49.52 c -1.7,16.47 -4.1,32.88 -6.2,49.35 l -6.4,49.24 c -2.1,16.41 -4,32.83 -7,49.12 l -16.4,97.84 c -24.3,129.98 -54.9,258.29 -92.3,384.37 l -29.2,94.11 -32.2,93.08 -4,11.65 -4.4,11.48 -8.8,23.07 -17.4,45.96 c -3,7.64 -5.7,15.38 -8.8,22.96 l -9.4,22.72 -18.8,45.45 c -51.1,120.8 -108.5,238.67 -171.7,353.09 -62.9,114.6 -132.8,224.9 -206.9,332.04 -208,300.7 -132.9,713.06 167.8,921.06 300.6,208 712.8,132.9 920.8,-167.8 14,-20.3 26.7,-41 38.1,-62.2 l 3.1,-5.9" /></g><g
         transform="scale(1.62738)"
         id="g122"><path
           id="path124"
           style="fill:#f6eaa9;fill-opacity:1;fill-rule:nonzero;stroke:none"
           d="m 15676.1,10932.6 c -19.8,-26.1 -38.7,-52.6 -55.4,-80.4 -17,-27.5 -32.3,-56 -45.8,-85.1 -7,-14.5 -12.8,-29.5 -19.1,-44.1 -5.5,-15 -11.6,-29.8 -16.2,-45 -2.3,-7.6 -5.1,-15.1 -7.1,-22.8 l -6.4,-22.9 c -2.4,-7.5 -3.7,-15.4 -5.6,-23.1 -1.6,-7.7 -3.8,-15.3 -5,-23.1 -24.2,-124.1 -20,-252.9 18.7,-369.4 l 7.5,-21.7 c 2.6,-7.2 5.7,-14.2 8.4,-21.3 5.5,-14.2 12.3,-27.9 18.9,-41.4 7,-13.3 14.1,-26.5 22.1,-39.2 8,-12.7 16.4,-25.2 25.5,-37.5 18.2,-24.6 38.8,-48.9 59.5,-74.59 20.9,-25.62 41.6,-52.41 61.4,-79.51 39.6,-54.51 74.9,-112.27 107.1,-170.52 32.1,-58.38 61.2,-117.43 90.3,-176.12 l 42.5,-88.36 c 14.1,-29.8 28.4,-59.85 41.7,-90.2 26.4,-60.78 51.3,-122.22 73.8,-184.53 45.1,-124.5 81.3,-252.19 111.1,-379.94 61.5,-255.87 96,-518.68 95.9,-780.58 -42.7,258.33 -98.4,511.87 -174,759.63 -9.4,31.15 -18.7,62.18 -28.6,92.97 -9.5,30.85 -19.4,61.57 -29.7,92.11 -20.8,61.02 -42.3,121.61 -66,181.4 -23.6,59.78 -48.4,119.02 -75.3,177.34 -13.2,29.31 -27,58.19 -41,87.25 l -42.9,87.75 c -28.3,58.5 -56.8,116.57 -87,172.85 -29.7,56.6 -62.1,110.61 -97.5,162.91 -18,26.11 -36.4,51.61 -56,77.24 -19.5,25.56 -39.8,52.1 -59.3,80.9 -19.4,28.7 -37.1,59.7 -51.4,91.8 -6.8,16.2 -13.6,32.2 -19,48.8 -2.7,8.3 -5.7,16.4 -8.2,24.7 l -7.1,25 c -35.7,134.2 -28.7,275.6 9.8,404.4 10.1,32.2 21.4,64 35.6,94.3 6.7,15.4 14.8,30.1 22.3,45 8.2,14.6 16.3,29.1 25.4,43.1 17.8,28.1 37.1,55.1 58.2,80.5 21.2,25.3 43.7,49.3 67.9,71.4" /></g><g
         transform="scale(1.7128)"
         id="g126"><path
           id="path128"
           style="fill:#ddab21;fill-opacity:1;fill-rule:nonzero;stroke:none"
           d="m 15600.3,10017.6 656.5,-1887.45 2.4,-7.07 c 40.8,-117.11 -31.1,-244.68 -160.2,-285.32 -23.5,-7.41 -48.4,-11.44 -71.8,-12.38 l -2855.8,-99.83 c -86.6,-3.04 -161.7,58.32 -167.8,137.26 -5.9,75.84 54.6,140.47 136.2,148.47 l 2865.2,273.41 -228.7,-306.75 -673.9,1874.71 c -46.7,129.91 26.9,272.95 164.8,318.85 138.3,46.1 287.6,-23.1 333.1,-153.9" /></g><g
         transform="scale(1.60017)"
         id="g130"><path
           id="path132"
           style="fill:#d1b79f;fill-opacity:1;fill-rule:nonzero;stroke:none"
           d="m 15713.4,11418.6 c -393.4,-106.7 -809.4,104.2 -924.6,468.6 l -162.1,513.2 c -115.2,364.5 112.3,750 505.7,856.7 v 0 c 93.6,15 316.5,38.5 566.5,-57.6 201.7,-77.5 327.3,-196.7 387.9,-263 44.7,-221.7 89.3,-443.5 134,-665.2 13.9,-45.7 79.2,-278.8 -63.8,-521 -144.5,-244.5 -395.2,-318.3 -443.6,-331.7" /></g><g
         transform="scale(1.57028)"
         id="g134"><path
           id="path136"
           style="fill:#f1dbcb;fill-opacity:1;fill-rule:nonzero;stroke:none"
           d="m 16132.5,11716 c -400.8,-108.7 -824.7,106.2 -942.1,477.6 l -165.3,522.9 c -85.4,270.2 14.1,551.6 228.8,726.8 -295.3,-158.6 -448.7,-490.4 -348.8,-806.8 l 165.3,-522.9 c 117.4,-371.4 541.3,-586.3 942.1,-477.6 33.6,9.3 162.2,47 287.5,148.4 -79,-42.9 -144.9,-62.1 -167.5,-68.4" /></g><g
         transform="scale(1.59899)"
         id="g138"><path
           id="path140"
           style="fill:#c0a58d;fill-opacity:1;fill-rule:nonzero;stroke:none"
           d="m 16238.9,12291.6 c -34.4,208.4 -204.1,241.8 -169.7,33.3 10.7,-43 61.1,-262.1 -49.2,-489.8 -111.4,-229.8 -304.6,-299.3 -342,-311.8 v 0 c -57.2,-19 -115.1,-27.3 -171.9,-25.9 107.1,-40.4 225.7,-45.9 341.7,-7.5 v 0 c 37.3,12.5 230.5,82 341.9,311.8 110.3,227.7 60,446.9 49.2,489.9" /></g><g
         transform="scale(1.60364)"
         id="g142"><path
           id="path144"
           style="fill:#d1b79f;fill-opacity:1;fill-rule:nonzero;stroke:none"
           d="m 16300,12446.7 c 0,-119.8 -104.8,-216.8 -234,-216.8 -129.2,0 -234,97 -234,216.8 0,119.7 104.8,216.8 234,216.8 129.2,0 234,-97.1 234,-216.8" /></g><g
         id="g146"><g
           clip-path="url(#clipPath152)"
           id="g148"><g
             transform="scale(1.54037)"
             id="g154"><path
               id="path164"
               style="fill:url(#linearGradient162);fill-opacity:1;fill-rule:nonzero;stroke:none"
               d="m 15399.2,13030 c -65.3,0 -119.5,3.8 -160.7,10.2 -74.6,11.6 -145.9,30.5 -145.9,30.5 -56.2,14.9 -119.2,35.4 -186.8,63.7 65.4,6.5 132.1,14.7 199.9,24.8 8.1,1.2 15.9,2.6 24,3.8 -23.7,2.8 -46.7,5.8 -68.8,9.1 -83.6,7.8 -215,30.4 -358,101.7 -21.9,11 -61.5,31.5 -108.1,62.9 -83.7,56.3 -143.9,116 -183.6,161 -23,-10.1 -52.7,-20.5 -88.3,-27.2 -21.3,-3.9 -40.8,-5.8 -58.1,-6.5 -1.5,1.9 -3,3.8 -4.4,5.6 85.7,6.7 203,30 300.3,111.8 52.6,44.2 67.1,78.4 123.6,137.6 53.6,56 138.9,128.3 273.9,189.1 -12.9,0.5 -26.2,0.8 -39.8,0.8 -12.9,0 -26.2,-0.3 -39.7,-0.8 -55.7,-2.2 -106.1,-8.8 -150.2,-17.2 22.8,18.4 55.6,43 97.2,68.8 219.3,135.8 438.4,149.6 538.7,154.7 12.5,0.7 32.1,1.5 57.6,1.5 110.5,0 332.6,-15.4 569.6,-128.3 134.9,-64.2 265.1,-132.8 308.4,-258 -41.5,-15 -70.5,-39.9 -86.7,-56 -17.4,-17.3 -38.8,-41.8 -58.5,-84.2 -16.6,-35.8 -87.6,-188.4 -43.5,-329.9 -59.1,-58.9 -137.7,-124.6 -238,-181.3 -188,-34.7 -350.8,-48.2 -474.1,-48.2 m -575.3,13.8 c -4.5,1.8 -8.4,3.5 -11.9,5 64.7,3.5 131.6,10.2 200.4,20.9 1.2,0.2 2.5,0.4 3.8,0.6 4.6,-0.4 8.8,-0.8 12.7,-1.1 -7.9,-1.3 -15.9,-2.6 -23.9,-3.9 -61.8,-9.6 -122.2,-16.7 -181.1,-21.5" /></g></g></g><g
         id="g166"><g
           clip-path="url(#clipPath172)"
           id="g168"><g
             transform="scale(1.58472)"
             id="g174"><path
               id="path184"
               style="fill:url(#linearGradient182);fill-opacity:1;fill-rule:nonzero;stroke:none"
               d="m 15932.6,12453 c -4,30.6 -12.8,73.2 -34.1,120.3 -15.3,33.8 -30.6,56 -50.1,84 -49.6,70.8 -70.1,77.5 -147.1,172.6 -14.9,18.5 -28,35.4 -36.2,44.7 -1.7,4.6 -3.3,9.2 -4.8,13.8 -42.8,137.6 26.2,285.9 42.3,320.6 19.2,41.3 40,65.1 56.9,81.9 15.7,15.6 43.9,39.8 84.3,54.4 9.2,3.3 19,6.1 29.4,8.2 13.7,2.8 27.2,4 40.2,4 64.4,0 118.5,-29.9 149.6,-47.4 93.6,-52.7 163.8,-161.2 185.4,-256.8 9.8,-43.5 19,-85.4 26.9,-121.9 14.2,-65.7 23.9,-114.1 24.7,-124.3 -1.3,0.1 -3,0.4 -5,0.6 -7.8,0.9 -21.2,2 -38.1,2 -48.9,0 -127.3,-9.8 -184.4,-65.2 -34.8,-33.9 -48.7,-72.1 -55,-90.1 -29.2,-83.5 -6.1,-156.9 4.4,-184.8 -29.8,-5.5 -59.6,-11.1 -89.3,-16.6" /></g></g></g><g
         transform="scale(1.34567)"
         id="g186"><path
           id="path188"
           style="fill:#d1b79f;fill-opacity:1;fill-rule:nonzero;stroke:none"
           d="M 16230.1,7363.07 14389.4,1864.86 c -31.4,-93.7 -132.7,-144.23 -226.4,-112.8 -87.7,29.35 -137.3,120.91 -117.6,209.26 l 1286.2,5653.89 c 57.2,251.7 307.6,409.31 559.2,352.02 251.6,-57.22 409.2,-307.73 351.9,-559.42 -3.4,-15.01 -7.8,-30.4 -12.6,-44.74" /></g><g
         transform="scale(1.83208)"
         id="g190"><path
           id="path192"
           style="fill:#b0b1cb;fill-opacity:1;fill-rule:nonzero;stroke:none"
           d="m 16208.2,5090.34 c -36.2,227.33 -60.5,513.67 -38.2,842.48 20,294.97 72.4,550.41 130,756.74" /></g><g
         transform="scale(1.83294)"
         id="g194"><path
           id="path196"
           style="fill:#da2c14;fill-opacity:1;fill-rule:nonzero;stroke:none"
           d="m 16021.8,4636.31 h -2787.6 c -153.1,0 -278.3,125.21 -278.3,278.24 v 202.03 c 0,153.03 125.2,278.24 278.3,278.24 h 2787.6 c 153,0 278.2,-125.21 278.2,-278.24 v -202.03 c 0,-153.03 -125.2,-278.24 -278.2,-278.24" /></g><g
         transform="scale(1.70073)"
         id="g198"><path
           id="path200"
           style="fill:#d1b79f;fill-opacity:1;fill-rule:nonzero;stroke:none"
           d="m 15932,5825.85 -3554.2,-26.4 354.4,463.21 998.9,-4793.06 c 13.2,-63.44 -27.5,-125.53 -90.8,-138.76 -59.3,-12.35 -117.6,22.87 -135.7,79.2 L 12018,6074.86 c -59.6,186.92 43.6,386.72 230.4,446.34 34.4,10.94 69.3,16.4 103.6,16.82 l 20.3,0.05 3554.2,26.4 c 203.9,1.53 370.4,-162.57 372,-366.54 1.5,-204.03 -162.6,-370.61 -366.5,-372.08" /></g><g
         transform="scale(1.21716)"
         id="g202"><path
           id="path204"
           style="fill:#bd931c;fill-opacity:1;fill-rule:nonzero;stroke:none"
           d="m 13772.6,1469.98 h 74 2412.2 c 41.2,211.89 22.9,378.67 1.4,484.57 -38.6,190.28 -96.1,228.24 -123.5,241.38 -80.1,38.21 -169.9,-7.39 -239.4,-29.25 -133.2,-41.89 -345.5,-44.94 -684.7,144.85 -219.5,10.6 -395.3,-18.98 -514,-42.07 -264.4,-51.43 -570,-162.34 -760.2,-399.12 -114.3,-142.22 -153.8,-288.46 -165.8,-400.36" /></g><g
         transform="scale(1.34132)"
         id="g206"><path
           id="path208"
           style="fill:#121847;fill-opacity:1;fill-rule:nonzero;stroke:none"
           d="M 14916.4,2158.55 16300,7049.63 15223.9,7354.03 13840.4,2462.95" /></g><g
         transform="scale(1.64529)"
         id="g210"><path
           id="path212"
           style="fill:#192163;fill-opacity:1;fill-rule:nonzero;stroke:none"
           d="m 16300,6867.34 c -1188.2,5.35 -2376.4,10.64 -3564.5,15.93 -143.2,0.67 -277.1,-65.1 -364,-178.82 -87.1,-113.65 -115.6,-260.01 -77.5,-398.04 413,-1499.91 826.1,-2999.77 1239.3,-4499.62 l 878.9,242.08 c -413.1,1499.86 -826.2,2999.71 -1239.3,4499.62 l -439.4,-121.07 -2.1,-455.84 c 1188.2,-5.29 2376.4,-10.58 3564.5,-15.87 l 4.1,911.63" /></g><g
         transform="scale(1.07637)"
         id="g214"><path
           id="path216"
           style="fill:#160015;fill-opacity:1;fill-rule:nonzero;stroke:none"
           d="m 16300,11993.8 h -351.5 v 4192.3 h 351.5 v -4192.3" /></g><g
         transform="scale(1.3661)"
         id="g218"><path
           id="path220"
           style="fill:#160015;fill-opacity:1;fill-rule:nonzero;stroke:none"
           d="m 16300,9450.08 h -3457 v 239.37 h 3457 v -239.37" /></g><g
         transform="scale(1.88453)"
         id="g222"><path
           id="path224"
           style="fill:#da2c14;fill-opacity:1;fill-rule:nonzero;stroke:none"
           d="m 15894.9,6324.34 404.3,1772.91 -0.6,-5.89 c 0.4,2.13 0.9,4.25 1.4,6.37 -3.3,25.47 -12.4,34.12 -24.5,39 -129.2,51.63 -601.8,-333.29 -714.4,-818.03 -115.3,-496.67 167.1,-1012.29 312.1,-1002.74 7.3,0.53 14.3,2.39 21.7,8.38" /></g><g
         transform="scale(1.67452)"
         id="g226"><path
           id="path228"
           style="fill:#b0b1cb;fill-opacity:1;fill-rule:nonzero;stroke:none"
           d="m 16300,1243.52 h -288.1 V 5074.96 H 16300 V 1243.52" /></g><g
         transform="scale(1.81952)"
         id="g230"><path
           id="path232"
           style="fill:#15154b;fill-opacity:1;fill-rule:nonzero;stroke:none"
           d="M 16300,1215.15 H 13461.6 V 967.948 H 16300 v 247.202" /></g><g
         transform="scale(1.72523)"
         id="g234"><path
           id="path236"
           style="fill:#192163;fill-opacity:1;fill-rule:nonzero;stroke:none"
           d="m 15275.4,6553.51 c 4.6,35.83 9.3,71.65 13.9,107.47 336.9,-24.64 673.8,-49.27 1010.7,-73.85 -51.6,-468.86 -217.5,-813.28 -376.4,-866.61 -83.7,-28.11 -188.2,-40.28 -188.2,-40.28 -98.2,-11.48 -180.6,-6.55 -237,0 -74.3,291.09 -148.7,582.18 -223,873.27" /></g><path
         id="path238"
         style="fill:#bb2611;fill-opacity:1;fill-rule:nonzero;stroke:none"
         d="m 14525.8,12915 h -527.2 c -218.2,0 -395,176.8 -395,395 v 1122.2 h 1317.2 V 13310 c 0,-218.2 -176.8,-395 -395,-395" /><path
         id="path240"
         style="fill:#bb2611;fill-opacity:1;fill-rule:nonzero;stroke:none"
         d="m 13993.3,13766.1 h -80 c 0,-42.4 -8.8,-82.3 -24.7,-118.9 -23.8,-54.8 -64,-102.1 -114.9,-135.5 -50.9,-33.4 -112.1,-53 -178.7,-53 -88.8,0 -168.3,34.9 -225.9,90.8 -28.8,28 -51.9,61.1 -67.8,97.7 -15.9,36.6 -24.6,76.5 -24.6,118.9 0,42.3 8.7,82.3 24.6,118.9 23.9,54.8 64,102 114.9,135.4 50.9,33.4 112.1,53 178.8,53 88.8,0 168.2,-34.8 225.8,-90.8 28.8,-27.9 51.9,-61.1 67.8,-97.6 15.9,-36.6 24.7,-76.6 24.7,-118.9 h 80 80 c 0,64.6 -13.5,126.6 -38,182.7 -36.6,84.2 -97.4,155.2 -173.7,205.3 -76.2,50.2 -168.3,79.4 -266.6,79.3 -131.2,0.1 -250.9,-51.8 -337.4,-136.1 -43.4,-42.1 -78.6,-92.4 -103,-148.5 -24.4,-56.1 -37.9,-118.1 -37.9,-182.7 0,-64.6 13.5,-126.6 37.9,-182.7 36.6,-84.2 97.5,-155.3 173.7,-205.4 76.3,-50.1 168.3,-79.3 266.7,-79.3 131.2,0 250.9,51.9 337.4,136.1 43.3,42.2 78.5,92.5 102.9,148.6 24.5,56.1 38,118.1 38,182.7 h -80" /><path
         id="path242"
         style="fill:#da2c14;fill-opacity:1;fill-rule:nonzero;stroke:none"
         d="m 13552.6,13336.1 c 0,-226.8 185.1,-410.7 413.4,-410.7 h 318.9 c 84,719.8 99.9,1197.8 73,1506.8 h -805.3 v -1096.1" /><g
         transform="scale(1.39523)"
         id="g244"><path
           id="path246"
           style="fill:#d1b79f;fill-opacity:1;fill-rule:nonzero;stroke:none"
           d="m 16184.2,15092.5 c 51,42.8 69.2,76.9 115.8,129.2 -13.8,-10 -32,-24.1 -52.2,-42.6 -6.3,-5.8 -18.2,-16.9 -37.5,-37.5 -18.2,-19.5 -42.2,-46.4 -69.1,-81 14.6,9.6 28.9,20.2 43,31.9" /></g><g
         transform="scale(1.42244)"
         id="g248"><path
           id="path250"
           style="fill:#d1b79f;fill-opacity:1;fill-rule:nonzero;stroke:none"
           d="m 16135.7,15065.4 c 21.6,12.6 44,25.2 67.2,37.8 33.1,17.9 65.5,34.4 97.1,49.7 -13.4,0.5 -27.1,0.8 -41.3,0.8 -21.8,0 -37.9,-0.6 -43.8,-0.8 -20.2,-0.8 -52,-1.1 -101.3,0.8 -23.7,-13.2 -48.3,-27.9 -73.6,-44.2 -38,-24.5 -72.3,-49.4 -103,-73.6 41.7,8.5 85.9,16.1 132.5,22.1 22.5,2.9 44.6,5.4 66.2,7.4" /></g><g
         id="g252"><g
           clip-path="url(#clipPath258)"
           id="g254"><g
             transform="scale(1.43459)"
             id="g260"><path
               id="path274"
               style="fill:url(#linearGradient272);fill-opacity:1;fill-rule:nonzero;stroke:none"
               d="m 16300,13886.2 c -3.3,0.4 -6.4,0.7 -9.1,1 -93.2,11.4 -234.7,39.5 -393.9,116.8 6.6,0.5 13.2,1 19.9,1.6 59.7,-25.2 198.4,-78.6 379.1,-101.5 0.1,-0.4 0.2,-0.7 0.2,-1.1 0.1,-0.1 0.1,-0.2 0.1,-0.3 0.1,-0.6 0.3,-1.2 0.4,-1.8 0,-0.1 0,-0.1 0,-0.2 0.2,-0.5 0.3,-1.1 0.4,-1.7 0,-0.1 0,-0.2 0.1,-0.3 0.1,-0.6 0.2,-1.2 0.4,-1.7 0,-0.2 0,-0.3 0,-0.4 0.2,-0.6 0.3,-1.2 0.4,-1.8 0,-0.1 0,-0.1 0,-0.2 0.2,-0.6 0.3,-1.2 0.5,-1.7 0,-0.1 0,-0.2 0,-0.2 0.1,-0.6 0.2,-1.2 0.4,-1.8 0.1,-0.1 0.1,-0.3 0.1,-0.4 0.1,-0.6 0.2,-1.1 0.4,-1.7 0,-0.1 0,-0.3 0,-0.4 0.2,-0.6 0.3,-1.1 0.5,-1.6 0,-0.2 0,-0.2 0,-0.4 0,0 0,-0.1 0.1,-0.2" /></g></g></g><g
         transform="scale(1.50249)"
         id="g276"><path
           id="path278"
           style="fill:#e3c9b7;fill-opacity:1;fill-rule:nonzero;stroke:none"
           d="m 15715,13252 -4.2,13.4 c 3.5,-0.1 7,-0.1 10.5,-0.1 140.8,0 297.4,24.2 456.1,94.4 33.9,15 66,31.2 96,48.2 8.8,1.7 17.7,3.3 26.6,5 -29.2,-16.7 -71.9,-39.7 -125.4,-62.7 -176.2,-75.4 -341.5,-95.7 -459.6,-98.2 m -151.6,6.6 v 0 c -0.1,0.1 -0.1,0.2 -0.1,0.3 0,-0.1 0,-0.2 0.1,-0.3 m -0.2,0.6 c -0.1,0.5 -0.2,1 -0.4,1.5 0.2,-0.5 0.3,-1 0.4,-1.5 m -0.4,1.9 c -0.2,0.6 -0.3,1.1 -0.4,1.6 0.1,-0.5 0.2,-1 0.4,-1.6 m -0.5,2 c -0.1,0.6 -0.3,1.2 -0.4,1.7 0.1,-0.5 0.3,-1.1 0.4,-1.7 m -0.4,1.9 c -0.1,0.6 -0.3,1.1 -0.4,1.6 0.1,-0.5 0.3,-1 0.4,-1.6 m -0.4,1.9 c -0.1,0.5 -0.3,1.1 -0.4,1.7 0.1,-0.6 0.3,-1.2 0.4,-1.7 m -0.5,2 c -0.1,0.6 -0.2,1.1 -0.3,1.7 0.1,-0.6 0.2,-1.1 0.3,-1.7 m -0.4,2 c -0.1,0.5 -0.2,1.1 -0.4,1.6 0.2,-0.5 0.3,-1.1 0.4,-1.6 m -0.4,1.8 c -0.1,0.6 -0.2,1.1 -0.4,1.7 0.2,-0.6 0.3,-1.2 0.4,-1.7 m -0.4,2 c 0,0.3 -0.2,0.7 -0.2,1 v 0 c 0,-0.3 0.1,-0.7 0.2,-1" /></g><g
         transform="scale(1.44857)"
         id="g280"><path
           id="path282"
           style="fill:#e6cdbc;fill-opacity:1;fill-rule:nonzero;stroke:none"
           d="m 16273.6,13745 c -59,0 -104.3,4.1 -130.9,7.2 -0.1,0 -0.1,0.1 -0.1,0.2 -0.1,0.1 -0.1,0.2 -0.1,0.3 -0.1,0.6 -0.2,1.1 -0.4,1.6 0,0.2 0,0.3 0,0.5 -0.2,0.5 -0.3,1.1 -0.5,1.6 0,0.2 0,0.3 0,0.4 -0.2,0.6 -0.3,1.2 -0.4,1.8 0,0 0,0.1 0,0.2 -0.2,0.5 -0.3,1.1 -0.5,1.7 0,0.1 0,0.1 0,0.2 -0.1,0.6 -0.2,1.2 -0.4,1.8 0,0.1 0,0.2 0,0.3 -0.2,0.6 -0.3,1.2 -0.4,1.8 -0.1,0.1 -0.1,0.2 -0.1,0.3 -0.1,0.6 -0.2,1.1 -0.4,1.7 0,0 0,0.1 0,0.1 -0.1,0.6 -0.2,1.2 -0.4,1.8 0,0.1 0,0.2 -0.1,0.4 0,0.3 -0.1,0.6 -0.2,1 49.5,-6.3 102,-10.3 157,-10.8 l 4.3,-13.8 c -9.1,-0.2 -17.9,-0.3 -26.4,-0.3" /></g><g
         id="g284"><g
           clip-path="url(#clipPath290)"
           id="g286"><g
             transform="scale(1.42098)"
             id="g292"><path
               id="path306"
               style="fill:url(#linearGradient304);fill-opacity:1;fill-rule:nonzero;stroke:none"
               d="m 16277.9,14168.5 c -16.5,1.5 -36.6,3.6 -59.3,6.5 -22.3,2.9 -91,12 -162,29.5 -9.5,2.3 -120.2,30.2 -227.5,82.9 -189.1,92.8 -320.6,239.6 -376.5,307.6 3.5,0 7.1,0.1 10.7,0.3 60.7,-77.8 178.3,-206.3 368.6,-301.5 156.9,-78.4 301,-103.2 392.7,-111.8 24.2,-3.6 49.4,-6.9 75.4,-9.9 -7.3,-1.3 -14.7,-2.5 -22.1,-3.6" /></g></g></g><g
         id="g308"><g
           clip-path="url(#clipPath314)"
           id="g310"><g
             transform="scale(1.50004)"
             id="g316"><path
               id="path326"
               style="fill:url(#linearGradient324);fill-opacity:1;fill-rule:nonzero;stroke:none"
               d="m 15746.9,13287 c -3.4,0 -7,0 -10.4,0 -53.1,0.5 -103.8,4.3 -151.5,10.4 v 0 c -172.8,21.9 -305.6,72.9 -362.6,97 60.5,5 122.6,12.2 186,22.1 8.2,1.3 16.4,2.6 24.6,4 -4,0.3 -8.4,0.7 -13.1,1.1 7,1.2 14,2.3 20.9,3.5 -24.6,2.8 -48.4,6 -71.4,9.3 -86.8,8.2 -223.4,31.7 -372,106 -180.2,90.2 -291.7,211.9 -349.2,285.5 17.8,0.8 37.9,2.7 59.7,6.7 36.5,6.9 67.1,17.6 90.7,28 40.8,-46.2 102.6,-107.6 188.6,-165.4 47.8,-32.2 88.4,-53.3 111,-64.5 146.8,-73.3 281.8,-96.5 367.6,-104.5 22.7,-3.4 46.3,-6.5 70.6,-9.3 -8.2,-1.3 -16.3,-2.7 -24.6,-4 -69.6,-10.4 -138.1,-18.8 -205.3,-25.4 69.4,-29.1 134.1,-50.1 191.9,-65.4 0,0 73.2,-19.4 149.8,-31.4 42.2,-6.5 97.9,-10.4 165,-10.4 126.6,0 293.7,13.8 486.8,49.5 -30.1,-17 -62.2,-33.3 -96.2,-48.3 -158.9,-70.3 -315.8,-94.5 -456.9,-94.5" /></g></g></g><g
         transform="scale(1.54901)"
         id="g328"><path
           id="path330"
           style="fill:#d1b79f;fill-opacity:1;fill-rule:nonzero;stroke:none"
           d="m 16274.3,12735.3 c -3.6,29.8 -12.2,74.8 -35.5,124.5 -17.6,37.6 -36.9,63.4 -63.5,99.1 -23.5,31.3 -60.6,76.8 -92.2,113.4 -6.1,7.1 -22.2,25.8 -39.5,53.4 -13.9,22.4 -29.1,51.5 -26.3,53.4 0.1,0.1 0.2,0.1 0.3,0.1 1.3,0 4.4,-2.8 8.7,-7.7 5.1,-14 11.5,-27.8 19.2,-41.4 2.3,-4.1 50.1,-63.8 145.5,-183.2 14.9,-18.7 33.7,-45.9 51.7,-84.7 23,-49.9 31.9,-95 35.7,-126.1 7.2,1.3 14.4,2.7 21.6,4 0,0 0,0 0,0 -8.6,-1.6 -17.1,-3.2 -25.7,-4.8" /></g><g
         id="g332"><g
           clip-path="url(#clipPath338)"
           id="g334"><g
             transform="scale(1.54901)"
             id="g340"><path
               id="path350"
               style="fill:url(#linearGradient348);fill-opacity:1;fill-rule:nonzero;stroke:none"
               d="m 16278.4,12736.1 c -3.8,31.1 -12.7,76.2 -35.7,126.1 -18,38.8 -36.8,66 -51.7,84.7 -95.4,119.4 -143.2,179.1 -145.5,183.2 -7.7,13.6 -14.1,27.4 -19.2,41.4 8.4,-9.6 21.8,-26.9 37.1,-45.8 78.7,-97.2 99.7,-104.1 150.4,-176.6 20,-28.6 35.7,-51.3 51.3,-85.9 21.8,-48.2 30.8,-91.7 34.9,-123.1 -7.2,-1.3 -14.4,-2.7 -21.6,-4" /></g></g></g><g
         transform="scale(1.56599)"
         id="g352"><path
           id="path354"
           style="fill:#f1dbcb;fill-opacity:1;fill-rule:nonzero;stroke:none"
           d="m 16134.2,11720 c 55.3,-107.7 110.5,-215.5 165.8,-323.2" /></g><g
         transform="scale(1.56599)"
         id="g356"><path
           id="path358"
           style="fill:#f1dbcb;fill-opacity:1;fill-rule:nonzero;stroke:none"
           d="m 16134.2,11720 c 21.2,-23.1 38.8,-48.1 55.4,-73.6 16.5,-25.6 31.5,-51.9 45.3,-78.9 13.9,-26.9 26.5,-54.4 37.6,-82.7 11.2,-28.4 21.1,-57.3 27.5,-88 -21.3,23.1 -38.9,48.1 -55.5,73.6 -16.4,25.6 -31.5,51.9 -45.3,78.8 -13.8,27 -26.3,54.5 -37.5,82.8 -11.1,28.4 -21.1,57.3 -27.5,88" /></g><g
         transform="scale(1.65032)"
         id="g360"><path
           id="path362"
           style="fill:#efdc6f;fill-opacity:1;fill-rule:nonzero;stroke:none"
           d="m 15813.4,10539.6 c -41.6,-17.5 -79.6,-43.7 -107.2,-78.2 -13.6,-17.3 -24.6,-36.4 -32.3,-56.7 -7.8,-20.3 -12.2,-41.7 -13.8,-63.4 -3.1,-43.3 5.1,-86.6 15.3,-129.3 5,-21.2 11.6,-42 19.7,-62.1 2,-5.1 4.2,-9.9 6.5,-15.3 l 6,-15.4 12.2,-30.9 c 32.7,-82.4 64.4,-165.25 96.7,-247.84 l 48.1,-123.91 47.7,-124.16 95.5,-248.26 94.5,-248.55 c 63.4,-165.67 125.7,-331.64 188.2,-497.61 l 9.5,-25.32 -27.6,-3.09 c -214.5,-23.52 -429,-46.42 -643.7,-67.99 l -322,-32.05 -322.1,-31.45 -322.2,-30.6 -322.3,-29.63 -322.4,-28.18 -161.2,-14.06 -161.3,-13.15 160.6,20.12 160.6,19.27 321.3,38.42 321.5,37.02 321.5,36.05 321.7,35.15 321.7,34.6 643.5,68.77 -18.1,-28.42 c -61.9,166.03 -123.9,332.06 -184.9,498.45 l -91.9,249.41 -91,249.77 -45.5,124.88 -45.1,125.07 c -29.9,83.44 -60.4,166.63 -89.8,250.29 l -11.2,31.3 -5.5,15.6 c -2,4.9 -4.1,10.4 -6,15.7 -7.7,21.2 -13.8,42.9 -18.2,65 -8.8,43.4 -15.9,88.4 -11.1,133.4 4.6,44.8 22.3,88.7 52.2,122.8 29.9,34.2 69.5,58.9 111.9,74.5" /></g><g
         transform="scale(1.58714)"
         id="g364"><path
           id="path366"
           style="fill:#ecd553;fill-opacity:1;fill-rule:nonzero;stroke:none"
           d="m 16165.9,9897.1 17.5,-103.52 16.8,-103.58 33.6,-207.23 32.5,-207.35 31.7,-207.48 2,-12.92 -13,-2.46 c -180.6,-33.77 -361.2,-67.29 -542,-99.86 l -135.5,-24.57 -135.6,-24.07 c -90.5,-15.88 -180.9,-32.32 -271.3,-47.82 l -271.6,-46.82 -271.7,-45.68 c -90.6,-14.99 -181.2,-29.99 -272,-44.23 -90.7,-14.43 -181.4,-29.1 -272.2,-42.71 89.9,18.83 180,36.6 270.1,54.62 90.1,18.15 180.2,35.6 270.4,53.05 l 270.7,51.61 270.8,50.46 c 90.3,16.95 180.7,32.96 271,49.46 l 135.6,24.58 135.6,24.07 c 180.8,32.32 361.9,63.69 542.9,94.76 l -11.1,-15.38 -27.6,208.11 -26.9,208.18 -25.7,208.36 -12.9,104.15 -12.1,104.27" /></g><g
         transform="scale(1.59272)"
         id="g368"><path
           id="path370"
           style="fill:#c0a58d;fill-opacity:1;fill-rule:nonzero;stroke:none"
           d="m 16188.1,12684.7 c 28.1,-10.1 53.4,-29.1 72.8,-53.3 19.3,-24.3 32.1,-54.5 35.5,-85.9 3.6,-31.4 -1.4,-63.2 -12.7,-91.6 -11.6,-28.4 -28.2,-54.5 -50.6,-74.5 13.5,26.5 24,53.5 30.9,80.9 6.9,27.3 9.3,55.1 6.3,82.1 -2.9,27.1 -12.1,53.4 -26.3,77.3 -14.2,24 -33.4,45.5 -55.9,65" /></g><g
         transform="scale(1.50829)"
         id="g372"><path
           id="path374"
           style="fill:#f3e38b;fill-opacity:1;fill-rule:nonzero;stroke:none"
           d="m 13151.7,16255.8 c -0.4,0 -0.8,0 -1.3,0 h 2.6 c -0.4,0 -0.9,0 -1.3,0 m -1.3,0 h -8.2 c -12.8,0 -23.2,9.9 -23.2,22.1 0,12.2 10.4,22.1 23.2,22.1 1.4,0 2.8,0 4.1,0 -0.8,-0.1 -8.8,-0.6 -14.9,-6.3 -5.7,-5.5 -7.6,-13.8 -5.8,-20.6 2.6,-9.5 12.7,-16.8 24.8,-17.3 m -1.5,44.2 c -0.9,0 -1.7,0 -2.6,0 v 0 c 0.5,0 1,0 1.3,0 0.5,0 0.9,0 1.3,0" /></g><g
         transform="scale(1.07352)"
         id="g376"><path
           id="path378"
           style="fill:#ffffff;fill-opacity:1;fill-rule:nonzero;stroke:none"
           d="m 16273.4,2191.21 c 4.1,110.39 13.6,201.77 22.7,277.41 -185.9,-74.62 -362.9,-184.44 -492.7,-345.96 -129.6,-161.25 -174.3,-326.97 -187.9,-453.94 h 83.9 600.6 c -18.9,134.89 -34.5,313.65 -26.6,522.49" /></g><g
         transform="scale(1.21549)"
         id="g380"><path
           id="path382"
           style="fill:#b6b6b6;fill-opacity:1;fill-rule:nonzero;stroke:none"
           d="m 13817.2,1588.49 c -13.5,-47.22 -21.4,-91.73 -25.7,-131.88 h 74.1 2415.5 c 9,46.24 15,90.09 18.9,131.88 h -2482.8" /></g><g
         transform="scale(1.08698)"
         id="g384"><path
           id="path386"
           style="fill:#f4f2f2;fill-opacity:1;fill-rule:nonzero;stroke:none"
           d="m 16275,2376.04 v 0 c -18.6,-10.21 -42.4,-4.13 -53.1,13.44 l -82.2,134.77 c -10.7,17.67 -4.4,40.21 14.3,50.33 18.6,10.21 42.4,4.14 53.1,-13.44 l 82.1,-134.77 c 10.8,-17.67 4.5,-40.2 -14.2,-50.33" /></g><g
         transform="scale(1.10024)"
         id="g388"><path
           id="path390"
           style="fill:#f4f2f2;fill-opacity:1;fill-rule:nonzero;stroke:none"
           d="m 16275.3,2387.84 v 0 c -18.4,-10.08 -41.9,-4.09 -52.6,13.27 l -81,133.16 c -10.7,17.45 -4.4,39.72 14,49.81 18.4,9.99 41.9,4.09 52.5,-13.36 l 81.2,-133.16 c 10.6,-17.45 4.3,-39.72 -14.1,-49.72" /></g><g
         transform="scale(1.1135)"
         id="g392"><path
           id="path394"
           style="fill:#f4f2f2;fill-opacity:1;fill-rule:nonzero;stroke:none"
           d="m 16275.6,2383.38 v 0 c -18.2,-9.97 -41.4,-4.04 -51.9,13.2 l -80.2,131.48 c -10.4,17.24 -4.3,39.25 13.9,49.21 18.1,9.88 41.4,4.04 51.9,-13.2 l 80.2,-131.57 c 10.5,-17.15 4.2,-39.15 -13.9,-49.12" /></g><path
         id="path396"
         style="fill:#15154b;fill-opacity:1;fill-rule:nonzero;stroke:none"
         d="m 12888.9,1774.6 h -536.1 V 12282 h 536.1 V 1774.6" /><g
         transform="scale(1.41581)"
         id="g398"><path
           id="path400"
           style="fill:#9594ee;fill-opacity:1;fill-rule:nonzero;stroke:none"
           d="M 16300,8413.91 H 8205.55 v 266.21 H 16300 v -266.21" /></g><g
         transform="scale(1.46154)"
         id="g402"><path
           id="path404"
           style="fill:#b0b1cb;fill-opacity:1;fill-rule:nonzero;stroke:none"
           d="M 16300,8403.46 H 7490.52 v 435.23 H 16300 v -435.23" /></g><g
         transform="scale(1.83294)"
         id="g406"><path
           id="path408"
           style="fill:#bb2611;fill-opacity:1;fill-rule:nonzero;stroke:none"
           d="m 16300,4927.32 v 178.23 c 0,149.44 -111.3,273.77 -254.2,292.59 -257.5,-113.91 -582,-331.92 -1156.9,-469.79 -257.5,-61.76 -514.9,-79.76 -1029.8,-115.77 -343.4,-24 -633.9,-31.75 -870.1,-33.06 50.7,-87.94 144.9,-147.36 252.3,-147.36 h 2766.9 c 160.5,0 291.8,132.8 291.8,295.16" /></g><g
         transform="scale(1.88453)"
         id="g410"><path
           id="path412"
           style="fill:#bb2611;fill-opacity:1;fill-rule:nonzero;stroke:none"
           d="m 15873.2,6315.48 c 7.3,0.48 14.3,2.34 21.7,8.33 l 404.3,1772.97 -0.6,-5.89 c 0.4,2.12 0.9,4.24 1.4,6.36 -3.3,25.42 -12.4,34.12 -24.5,38.95 -48.7,19.48 -146.1,-23.03 -254.7,-109.52 -4.9,-178.13 -18.6,-397.08 -59.6,-661.28 -71.8,-463.46 -180.4,-763.75 -224.9,-953.5 48.6,-63.25 97.8,-99.02 136.9,-96.42" /></g><g
         transform="scale(1.67773)"
         id="g414"><path
           id="path416"
           style="fill:#9798ae;fill-opacity:1;fill-rule:nonzero;stroke:none"
           d="m 16300,1317.85 h -143.1 V 5065.24 H 16300 V 1317.85" /></g><g
         transform="scale(1.45828)"
         id="g418"><path
           id="path420"
           style="fill:#e6c719;fill-opacity:1;fill-rule:nonzero;stroke:none"
           d="m 14190.5,1219.38 h 61.7 2013.4 c 34.4,176.92 19.1,316.12 1.2,404.52 -32.2,158.81 -80.2,190.5 -103.1,201.47 -66.8,31.89 -141.8,-6.17 -199.8,-24.41 -111.2,-34.98 -288.4,-37.58 -571.5,120.89 -183.2,8.85 -330,-15.91 -429,-35.11 -220.7,-42.93 -475.7,-135.5 -634.6,-333.2 -95.3,-118.7 -128.3,-240.69 -138.3,-334.16" /></g><g
         transform="scale(1.31464)"
         id="g422"><path
           id="path424"
           style="fill:#eaeaea;fill-opacity:1;fill-rule:nonzero;stroke:none"
           d="m 16278.2,1781.02 c 3.4,90.14 11.2,164.69 18.6,226.53 -151.7,-60.93 -296.4,-150.61 -402.3,-282.51 -105.8,-131.67 -142.3,-267 -153.4,-370.67 h 68.4 490.5 c -15.4,110.06 -28.1,256.04 -21.8,426.65" /></g><g
         transform="scale(1.45661)"
         id="g426"><path
           id="path428"
           style="fill:#dfdfdf;fill-opacity:1;fill-rule:nonzero;stroke:none"
           d="m 14228.2,1332.41 c -11.3,-39.41 -17.8,-76.55 -21.4,-110.05 h 61.8 2015.6 c 7.6,38.58 12.6,75.17 15.8,110.05 h -2071.8" /></g><g
         transform="scale(1.3281)"
         id="g430"><path
           id="path432"
           style="fill:#f4f2f2;fill-opacity:1;fill-rule:nonzero;stroke:none"
           d="m 16279.5,1936.38 v 0 c -15.2,-8.28 -34.7,-3.39 -43.4,11.07 l -67.3,110.31 c -8.8,14.38 -3.6,32.82 11.7,41.18 15.2,8.36 34.7,3.39 43.5,-11.07 l 67.2,-110.23 c 8.8,-14.46 3.6,-32.9 -11.7,-41.26" /></g><g
         transform="scale(1.34136)"
         id="g434"><path
           id="path436"
           style="fill:#f4f2f2;fill-opacity:1;fill-rule:nonzero;stroke:none"
           d="m 16279.7,1950.41 v 0 c -15,-8.21 -34.3,-3.36 -43.1,10.96 l -66.5,109.21 c -8.7,14.32 -3.5,32.58 11.5,40.78 15.2,8.28 34.4,3.36 43.1,-10.88 l 66.6,-109.22 c 8.7,-14.31 3.6,-32.58 -11.6,-40.85" /></g><g
         transform="scale(1.35463)"
         id="g438"><path
           id="path440"
           style="fill:#f4f2f2;fill-opacity:1;fill-rule:nonzero;stroke:none"
           d="m 16279.9,1951.09 v 0 c -14.9,-8.19 -34,-3.32 -42.6,10.78 l -66,108.15 c -8.5,14.17 -3.4,32.26 11.5,40.38 14.9,8.19 34,3.32 42.6,-10.78 l 66,-108.15 c 8.6,-14.17 3.4,-32.26 -11.5,-40.38" /></g><g
         transform="scale(1.36353)"
         id="g442"><path
           id="path444"
           style="fill:#15154b;fill-opacity:1;fill-rule:nonzero;stroke:none"
           d="m 16300,1288.94 h -380.3 V 8736.53 H 16300 V 1288.94" /></g><g
         transform="scale(1.36316)"
         id="g446"><path
           id="path448"
           style="fill:#0d1133;fill-opacity:1;fill-rule:nonzero;stroke:none"
           d="m 16300,1297.21 h -145.9 V 8738.89 H 16300 V 1297.21" /></g><path
         id="path450"
         style="fill:#0d1133;fill-opacity:1;fill-rule:nonzero;stroke:none"
         d="m 12921.6,1774.6 h -209.3 v 10137.9 h 209.3 V 1774.6" /><g
         transform="scale(1.13612)"
         id="g452"><path
           id="path454"
           style="fill:#e6c719;fill-opacity:1;fill-rule:nonzero;stroke:none"
           d="m 14132.3,15779.1 -65.8,-4.8 c 0.8,-10.2 1.1,-20.3 1.1,-30.4 0,-54.9 -10.9,-107.4 -30.8,-155.9 -29.8,-72.8 -80.2,-136.4 -144.7,-183.2 -64.5,-46.7 -142.9,-76.8 -229.7,-82.8 -10.6,-0.7 -21,-1.1 -31.4,-1.1 -113.9,0 -218.6,42.9 -296.8,113.7 -39.2,35.4 -71.6,77.7 -95.3,124.9 -23.6,47.2 -38.4,99.4 -42.5,155.1 -0.8,10.2 -1.1,20.3 -1.1,30.3 0,54.9 10.9,107.5 30.8,156 29.8,72.8 80.2,136.3 144.7,183.1 64.5,46.8 142.9,76.9 229.7,82.9 10.6,0.7 21,1.1 31.4,1.1 113.9,0 218.6,-43 296.9,-113.7 39.1,-35.4 71.5,-77.7 95.2,-124.9 23.6,-47.2 38.4,-99.4 42.5,-155.1 l 65.8,4.8 65.9,4.8 c -5.3,73.2 -25,142.4 -56.2,204.6 -46.7,93.4 -119,171.2 -207.2,225.7 -88.1,54.5 -192.4,85.8 -302.9,85.8 -13.3,0 -26.9,-0.5 -40.5,-1.4 -149.1,-10.3 -281.3,-76.2 -375.8,-175.6 -94.7,-99.4 -152.4,-233.1 -152.4,-378.1 0,-13.2 0.6,-26.5 1.5,-39.9 5.3,-73.2 25,-142.4 56.2,-204.6 46.7,-93.4 119,-171.2 207.2,-225.7 88.1,-54.5 192.4,-85.8 302.9,-85.8 13.3,0 26.9,0.5 40.5,1.4 149.1,10.3 281.3,76.2 375.8,175.6 94.7,99.4 152.4,233.1 152.4,378 0,13.3 -0.6,26.6 -1.5,40 l -65.9,-4.8" /></g><g
         transform="scale(1.14514)"
         id="g456"><path
           id="path458"
           style="fill:#e6c719;fill-opacity:1;fill-rule:nonzero;stroke:none"
           d="m 13531.1,16123.4 h -12.5 c -46.4,0 -84.4,37.9 -84.4,84.3 v 7.9 c 0,46.4 38,84.4 84.4,84.4 h 12.5 c 46.3,0 84.2,-38 84.2,-84.4 v -7.9 c 0,-46.4 -37.9,-84.3 -84.2,-84.3" /></g><g
         transform="scale(1.06248)"
         id="g460"><path
           id="path462"
           style="fill:#e6c719;fill-opacity:1;fill-rule:nonzero;stroke:none"
           d="m 14582.6,16109.7 h -13.3 c -50.1,0 -91,40.9 -91,90.9 v 8.5 c 0,50 40.9,90.9 91,90.9 h 13.3 c 50.1,0 90.9,-40.9 90.9,-90.9 v -8.5 c 0,-50 -40.8,-90.9 -90.9,-90.9" /></g><g
         transform="scale(1.1036)"
         id="g464"><path
           id="path466"
           style="fill:#e6c719;fill-opacity:1;fill-rule:nonzero;stroke:none"
           d="m 14659.6,16116.8 h -12.9 c -48.3,0 -87.6,39.3 -87.6,87.5 v 8.2 c 0,48.1 39.3,87.5 87.6,87.5 h 12.9 c 48.1,0 87.5,-39.4 87.5,-87.5 v -8.2 c 0,-48.2 -39.4,-87.5 -87.5,-87.5" /></g><g
         transform="scale(1.1036)"
         id="g468"><path
           id="path470"
           style="fill:#e6c719;fill-opacity:1;fill-rule:nonzero;stroke:none"
           d="m 13415.6,16116.8 h -13 c -48.1,0 -87.5,39.3 -87.5,87.5 v 8.2 c 0,48.1 39.4,87.5 87.5,87.5 h 13 c 48.1,0 87.5,-39.4 87.5,-87.5 v -8.2 c 0,-48.2 -39.4,-87.5 -87.5,-87.5" /></g><g
         transform="scale(1.14041)"
         id="g472"><path
           id="path474"
           style="fill:#e6c719;fill-opacity:1;fill-rule:nonzero;stroke:none"
           d="m 13873.4,16096.4 -61.8,38.1 c -25.3,15.5 -33,48.4 -17,73.1 l 39.1,60.3 c 15.9,24.7 49.7,32.1 74.9,16.5 l 61.9,-38 c 25.3,-15.6 32.9,-48.5 17,-73.2 l -39.1,-60.2 c -15.9,-24.7 -49.7,-32.1 -75,-16.6" /></g><g
         transform="scale(1.06909)"
         id="g476"><path
           id="path478"
           style="fill:#e6c719;fill-opacity:1;fill-rule:nonzero;stroke:none"
           d="m 14155.9,16082.6 -67.6,38 c -27.6,15.6 -37.2,50.3 -21.3,77.3 l 39,65.8 c 16,27 51.7,36.3 79.4,20.7 l 67.5,-38 c 27.6,-15.5 37.1,-50.3 21.2,-77.2 l -39,-65.9 c -16,-26.9 -51.6,-36.2 -79.2,-20.7" /></g><g
         transform="scale(1.08465)"
         id="g480"><path
           id="path482"
           style="fill:#e6c719;fill-opacity:1;fill-rule:nonzero;stroke:none"
           d="m 14815.7,16085.9 -68.6,34.1 c -28,14 -39.1,47.7 -24.8,75 l 34.9,66.8 c 14.3,27.3 49,38.2 77,24.3 l 68.5,-34.1 c 27.9,-14 39.2,-47.7 24.9,-75.1 l -35.1,-66.7 c -14.3,-27.3 -48.8,-38.2 -76.8,-24.3" /></g><g
         transform="scale(1.12673)"
         id="g484"><path
           id="path486"
           style="fill:#e6c719;fill-opacity:1;fill-rule:nonzero;stroke:none"
           d="m 13204.7,16093.9 -62.8,38.2 c -25.7,15.6 -33.6,48.9 -17.5,74 l 39.1,61.2 c 16.1,25 50.2,32.7 75.9,17.1 l 62.8,-38.2 c 25.7,-15.6 33.6,-48.9 17.6,-74 l -39.2,-61.2 c -16.1,-25 -50.2,-32.7 -75.9,-17.1" /></g><g
         transform="scale(1.12539)"
         id="g488"><path
           id="path490"
           style="fill:#e6c719;fill-opacity:1;fill-rule:nonzero;stroke:none"
           d="m 14233.4,16113.1 -37,62.6 c -15.1,25.6 -6.1,58.6 20.1,73.4 l 64.3,36.1 c 26.2,14.8 60,5.9 75.2,-19.6 l 37.1,-62.6 c 15.1,-25.6 6,-58.6 -20.2,-73.4 l -64.1,-36.1 c -26.3,-14.8 -60.2,-5.9 -75.4,19.6" /></g><g
         transform="scale(1.08407)"
         id="g492"><path
           id="path494"
           style="fill:#e6c719;fill-opacity:1;fill-rule:nonzero;stroke:none"
           d="m 13674.1,16103.1 -41.1,63.4 c -16.8,25.9 -8.9,60.6 17.8,77 l 64.9,40.1 c 26.6,16.4 62.2,8.6 79,-17.3 l 41.1,-63.4 c 16.9,-25.9 8.9,-60.5 -17.7,-76.9 l -65,-40.1 c -26.6,-16.5 -62.1,-8.7 -79,17.2" /></g><g
         transform="scale(1.06971)"
         id="g496"><path
           id="path498"
           style="fill:#e6c719;fill-opacity:1;fill-rule:nonzero;stroke:none"
           d="m 14734.9,16103.4 -39,65.8 c -16,27 -6.5,61.7 21.2,77.3 l 67.5,38 c 27.6,15.5 63.3,6.2 79.2,-20.7 l 39,-65.8 c 15.9,-27 6.4,-61.7 -21.3,-77.3 l -67.5,-38 c -27.5,-15.5 -63.2,-6.2 -79.1,20.7" /></g><g
         transform="scale(1.14105)"
         id="g500"><path
           id="path502"
           style="fill:#e6c719;fill-opacity:1;fill-rule:nonzero;stroke:none"
           d="m 13215.1,16112.9 -39.1,60.2 c -16,24.6 -8.5,57.5 16.8,73.1 l 61.8,38.2 c 25.2,15.6 59,8.2 75,-16.4 l 39.1,-60.1 c 16,-24.7 8.5,-57.6 -16.8,-73.2 l -61.7,-38.1 c -25.3,-15.6 -59,-8.3 -75.1,16.3" /></g><g
         transform="scale(1.12153)"
         id="g504"><path
           id="path506"
           style="fill:#e6c719;fill-opacity:1;fill-rule:nonzero;stroke:none"
           d="m 14119.9,15972 -44.4,-3.2 c 0.4,-6.3 0.6,-12.5 0.6,-18.7 0,-67.3 -26.7,-129.4 -71.2,-176.3 -44.6,-46.9 -106.8,-78.1 -177.8,-83 -6.5,-0.5 -13,-0.7 -19.3,-0.7 -70.1,0 -134.4,26.4 -182.5,70 -48.1,43.6 -79.7,103.6 -84.6,172.1 -0.5,6.2 -0.7,12.4 -0.7,18.6 0,67.4 26.6,129.5 71.2,176.4 44.7,46.9 106.7,78 177.8,83 6.5,0.4 12.9,0.6 19.3,0.6 70,0 134.4,-26.4 182.5,-69.9 48.1,-43.6 79.6,-103.7 84.7,-172.1 l 44.4,3.2 44.5,3.3 c -6.7,92.2 -49.7,173.8 -113.8,231.7 -64,58 -149.6,93 -242.3,93 -8.4,0 -16.9,-0.3 -25.5,-0.9 -93.6,-6.4 -176.7,-47.9 -236.2,-110.4 -59.5,-62.5 -95.8,-146.7 -95.7,-237.9 0,-8.3 0.2,-16.7 0.9,-25.1 6.6,-92.2 49.6,-173.8 113.6,-231.8 64.1,-58 149.7,-92.9 242.4,-92.9 8.4,0 16.9,0.3 25.5,0.8 93.6,6.5 176.7,47.9 236.2,110.5 59.5,62.5 95.7,146.7 95.7,237.8 0,8.4 -0.2,16.7 -0.8,25.2 l -44.5,-3.3" /></g><g
         transform="scale(1.13766)"
         id="g508"><path
           id="path510"
           style="fill:#f3e38b;fill-opacity:1;fill-rule:nonzero;stroke:none"
           d="m 13098.7,16265.1 c -0.4,0 -0.7,0.1 -1.1,0.1 h 2.2 c -0.4,0 -0.8,-0.1 -1.1,-0.1 m -1.1,0.1 h -6.4 c -10.1,0 -18.3,7.8 -18.3,17.4 0,9.6 8.2,17.4 18.3,17.4 1.1,0 2.2,0 3.3,0 -0.7,-0.1 -7.1,-0.5 -11.8,-5 -4.6,-4.3 -6,-10.9 -4.6,-16.2 2,-7.5 10,-13.2 19.5,-13.6 m -1.2,34.8 c -0.6,0 -1.2,0 -1.9,0 v 0 c 0.3,0 0.7,0 0.9,0 0.4,0 0.7,0 1,0" /></g><g
         transform="scale(1.42643)"
         id="g512"><path
           id="path514"
           style="fill:#e6c719;fill-opacity:1;fill-rule:nonzero;stroke:none"
           d="m 9091.63,15885.1 -52.44,-3.8 c 0.56,-8.1 0.91,-16.2 0.91,-24.2 -0.07,-43.7 -8.69,-85.6 -24.53,-124.2 -23.77,-58 -63.87,-108.6 -115.26,-145.9 -51.45,-37.2 -113.92,-61.1 -182.97,-65.9 -8.41,-0.6 -16.76,-0.9 -25.1,-0.9 -90.64,0 -174,34.2 -236.39,90.6 -31.13,28.1 -57,61.8 -75.79,99.4 -18.78,37.6 -30.63,79.2 -33.93,123.6 -0.56,8.1 -0.84,16.1 -0.84,24.1 0,43.8 8.63,85.6 24.47,124.3 23.76,57.9 63.93,108.5 115.32,145.8 51.39,37.3 113.85,61.2 182.91,66 8.41,0.6 16.82,0.8 25.09,0.8 90.72,0 174.07,-34.1 236.4,-90.5 31.19,-28.2 56.99,-61.9 75.78,-99.5 18.86,-37.6 30.7,-79.1 33.93,-123.5 l 52.44,3.8 52.44,3.8 c -4.21,58.3 -19.91,113.4 -44.73,163 -37.23,74.4 -94.78,136.3 -165.03,179.8 -70.17,43.4 -153.25,68.3 -241.23,68.3 -10.72,0 -21.52,-0.4 -32.32,-1.1 -118.68,-8.2 -223.98,-60.7 -299.34,-139.9 -75.37,-79.1 -121.29,-185.6 -121.29,-301.1 0,-10.5 0.35,-21.1 1.13,-31.8 4.27,-58.3 19.98,-113.4 44.79,-163 37.23,-74.3 94.78,-136.3 164.96,-179.7 70.24,-43.4 153.32,-68.4 241.23,-68.4 10.73,0 21.52,0.4 32.39,1.2 118.62,8.1 223.91,60.6 299.28,139.8 75.36,79.2 121.35,185.7 121.35,301.1 0,10.6 -0.42,21.2 -1.19,31.8 l -52.44,-3.8" /></g><g
         transform="scale(1.43545)"
         id="g516"><path
           id="path518"
           style="fill:#e6c719;fill-opacity:1;fill-rule:nonzero;stroke:none"
           d="m 8643.56,16159.1 h -9.97 c -36.99,0 -67.22,30.3 -67.22,67.3 v 6.3 c 0,37 30.23,67.3 67.22,67.3 h 9.97 c 36.99,0 67.29,-30.3 67.29,-67.3 v -6.3 c 0,-37 -30.3,-67.3 -67.29,-67.3" /></g><g
         transform="scale(1.3528)"
         id="g520"><path
           id="path522"
           style="fill:#e6c719;fill-opacity:1;fill-rule:nonzero;stroke:none"
           d="m 9170.91,16150.5 h -10.57 c -39.25,0 -71.41,32.1 -71.41,71.4 v 6.7 c 0,39.3 32.16,71.4 71.41,71.4 h 10.57 c 39.25,0 71.41,-32.1 71.41,-71.4 v -6.7 c 0,-39.3 -32.16,-71.4 -71.41,-71.4" /></g><g
         transform="scale(1.39391)"
         id="g524"><path
           id="path526"
           style="fill:#e6c719;fill-opacity:1;fill-rule:nonzero;stroke:none"
           d="m 9391.41,16154.9 h -10.26 c -38.09,0 -69.3,31.2 -69.3,69.3 v 6.5 c 0,38.1 31.21,69.3 69.3,69.3 h 10.26 c 38.1,0 69.31,-31.2 69.31,-69.3 v -6.5 c 0,-38.1 -31.21,-69.3 -69.31,-69.3" /></g><g
         transform="scale(1.39391)"
         id="g528"><path
           id="path530"
           style="fill:#e6c719;fill-opacity:1;fill-rule:nonzero;stroke:none"
           d="m 8406.49,16154.9 h -10.26 c -38.1,0 -69.23,31.2 -69.23,69.3 v 6.5 c 0,38.1 31.13,69.3 69.23,69.3 h 10.26 c 38.16,0 69.3,-31.2 69.3,-69.3 v -6.5 c 0,-38.1 -31.14,-69.3 -69.3,-69.3" /></g><g
         transform="scale(1.43072)"
         id="g532"><path
           id="path534"
           style="fill:#e6c719;fill-opacity:1;fill-rule:nonzero;stroke:none"
           d="m 8900.34,16137.7 -49.28,30.4 c -20.2,12.4 -26.28,38.6 -13.56,58.3 l 31.11,48 c 12.72,19.7 39.63,25.6 59.83,13.2 l 49.27,-30.3 c 20.2,-12.4 26.28,-38.7 13.56,-58.3 l -31.1,-48.1 c -12.79,-19.6 -39.7,-25.6 -59.83,-13.2" /></g><g
         transform="scale(1.3594)"
         id="g536"><path
           id="path538"
           style="fill:#e6c719;fill-opacity:1;fill-rule:nonzero;stroke:none"
           d="m 8861.54,16129 -53.11,29.9 c -21.77,12.3 -29.28,39.6 -16.7,60.8 l 30.67,51.8 c 12.51,21.2 40.61,28.5 62.31,16.3 l 53.11,-29.9 c 21.78,-12.3 29.28,-39.6 16.78,-60.8 l -30.68,-51.8 c -12.58,-21.2 -40.61,-28.5 -62.38,-16.3" /></g><g
         transform="scale(1.37496)"
         id="g540"><path
           id="path542"
           style="fill:#e6c719;fill-opacity:1;fill-rule:nonzero;stroke:none"
           d="m 9441.91,16131.1 -53.96,26.9 c -22.11,11 -30.98,37.6 -19.64,59.2 l 27.57,52.6 c 11.27,21.6 38.62,30.2 60.72,19.2 l 53.97,-26.9 c 22.11,-11 30.98,-37.6 19.64,-59.2 l -27.57,-52.6 c -11.27,-21.6 -38.62,-30.2 -60.73,-19.2" /></g><g
         transform="scale(1.41704)"
         id="g544"><path
           id="path546"
           style="fill:#e6c719;fill-opacity:1;fill-rule:nonzero;stroke:none"
           d="m 8320.59,16136.1 -49.9,30.4 c -20.39,12.4 -26.67,38.9 -13.97,58.8 l 31.19,48.7 c 12.7,19.9 39.87,26 60.27,13.6 l 49.96,-30.4 c 20.39,-12.4 26.68,-38.9 13.97,-58.8 l -31.19,-48.7 c -12.7,-19.9 -39.87,-26 -60.33,-13.6" /></g><g
         transform="scale(1.41571)"
         id="g548"><path
           id="path550"
           style="fill:#e6c719;fill-opacity:1;fill-rule:nonzero;stroke:none"
           d="m 9133.8,16151.5 -29.45,49.7 c -12.08,20.3 -4.88,46.6 16.03,58.3 l 51,28.8 c 20.91,11.7 47.82,4.7 59.9,-15.7 l 29.38,-49.7 c 12.08,-20.4 4.88,-46.6 -16.03,-58.4 l -51,-28.7 c -20.84,-11.7 -47.82,-4.7 -59.83,15.7" /></g><g
         transform="scale(1.37438)"
         id="g552"><path
           id="path554"
           style="fill:#e6c719;fill-opacity:1;fill-rule:nonzero;stroke:none"
           d="m 8539.32,16144.7 -32.46,50 c -13.31,20.4 -6.98,47.8 13.97,60.7 l 51.3,31.7 c 20.95,12.9 48.97,6.8 62.28,-13.7 l 32.45,-50 c 13.25,-20.4 6.99,-47.7 -13.96,-60.7 l -51.3,-31.6 c -20.96,-12.9 -48.97,-6.8 -62.28,13.6" /></g><g
         transform="scale(1.36003)"
         id="g556"><path
           id="path558"
           style="fill:#e6c719;fill-opacity:1;fill-rule:nonzero;stroke:none"
           d="m 9319.36,16145.4 -30.66,51.8 c -12.51,21.1 -5,48.5 16.69,60.7 l 53.16,29.9 c 21.69,12.2 49.7,4.9 62.28,-16.3 l 30.66,-51.8 c 12.5,-21.1 5,-48.5 -16.69,-60.7 l -53.09,-29.9 c -21.77,-12.2 -49.78,-4.9 -62.35,16.3" /></g><g
         transform="scale(1.43136)"
         id="g560"><path
           id="path562"
           style="fill:#e6c719;fill-opacity:1;fill-rule:nonzero;stroke:none"
           d="m 8377.82,16150.9 -31.23,47.9 c -12.71,19.7 -6.7,45.9 13.42,58.3 l 49.18,30.5 c 20.12,12.4 47.09,6.5 59.8,-13.1 l 31.23,-48 c 12.79,-19.6 6.71,-45.8 -13.41,-58.3 l -49.19,-30.4 c -20.12,-12.4 -47.01,-6.5 -59.8,13.1" /></g><g
         transform="scale(1.41185)"
         id="g564"><path
           id="path566"
           style="fill:#e6c719;fill-opacity:1;fill-rule:nonzero;stroke:none"
           d="m 9029.65,16039.5 -35.34,-2.6 c 0.35,-5 0.56,-9.9 0.56,-14.8 0,-53.5 -21.17,-102.9 -56.59,-140.1 -35.41,-37.3 -84.78,-62 -141.23,-65.9 -5.17,-0.4 -10.27,-0.6 -15.37,-0.6 -55.6,0 -106.67,21 -144.92,55.6 -38.17,34.6 -63.25,82.3 -67.21,136.7 -0.36,5 -0.57,9.9 -0.57,14.8 0,53.6 21.18,102.9 56.59,140.1 35.42,37.3 84.78,62 141.24,65.9 5.17,0.4 10.26,0.6 15.37,0.6 55.6,0 106.66,-21 144.91,-55.6 38.25,-34.6 63.25,-82.3 67.22,-136.7 l 35.34,2.6 35.34,2.5 c -5.31,73.3 -39.45,138.1 -90.37,184.1 -50.93,46.1 -118.92,73.9 -192.44,73.9 -6.73,0 -13.46,-0.2 -20.26,-0.7 -74.37,-5.1 -140.46,-38 -187.7,-87.7 -47.24,-49.7 -76.07,-116.5 -76.07,-189 0,-6.6 0.28,-13.3 0.78,-19.9 5.24,-73.3 39.38,-138.1 90.31,-184.1 50.92,-46.1 118.92,-73.9 192.44,-73.9 6.73,0 13.46,0.2 20.26,0.7 74.37,5.1 140.45,38.1 187.69,87.8 47.25,49.6 76.07,116.4 76.07,188.9 0,6.6 -0.28,13.3 -0.71,19.9 l -35.34,-2.5" /></g><g
         transform="scale(1.42797)"
         id="g568"><path
           id="path570"
           style="fill:#f3e38b;fill-opacity:1;fill-rule:nonzero;stroke:none"
           d="m 8273.56,16272.2 c -0.28,0 -0.56,0 -0.84,0 h 1.61 c -0.28,0 -0.56,0 -0.77,0 m -0.84,0 h -5.11 c -8.12,0 -14.64,6.3 -14.64,13.9 0,7.7 6.52,13.9 14.64,13.9 0.84,0 1.68,0 2.59,0 -0.56,-0.1 -5.6,-0.4 -9.38,-4 -3.64,-3.4 -4.76,-8.6 -3.64,-12.9 1.61,-6 7.91,-10.6 15.54,-10.9 m -0.98,27.8 c -0.49,0 -1.05,0 -1.54,0 v 0 c 0.28,0 0.56,0 0.77,0 0.28,0 0.56,0 0.77,0" /></g><g
         transform="scale(1.37856)"
         id="g572"><path
           id="path574"
           style="fill:#dbdbdb;fill-opacity:1;fill-rule:nonzero;stroke:none"
           d="m 15698.1,10890.5 c 49.7,88.4 78.1,190.4 78.1,299 0,309.7 -230.3,565.5 -528.9,605.7 32.4,60.1 50.6,127.8 50.6,199.3 0,181.6 -117,338.1 -285.8,409.9 6.8,30.1 11.2,61.9 12.5,95.1 9.5,246 -158,432.1 -227.8,501.3 -183.2,352.8 -482.1,830.1 -956.5,1298.6 -354.2,349.7 -706.8,596.3 -994.5,767 -43.1,-40.5 -86.1,-81 -129.2,-121.5 -78.2,-73.5 -156.7,-146.9 -235.3,-220.2 251.6,-340.7 544.4,-824.6 744.1,-1450.5 81.7,-256.5 135.4,-497.9 170.4,-716.4 -106.4,-61.8 -178.1,-176.9 -178.1,-308.9 0,-113.8 53.4,-215.1 136.4,-280.5 -1.3,-9.1 -2.5,-18.1 -3.8,-27.1 -159.8,-74.8 -269.2,-226.9 -269.2,-402.4 0,-58 12,-113.3 33.8,-164.2 -175.9,-73.8 -315.1,-217.5 -383,-396.3 v -496.8 c 16.4,-43.1 36.9,-84.3 61.2,-122.9 -22.4,-26.1 -42.7,-54 -61.2,-83.2 v -677.04 h 2246.4 c 25.9,63.26 43.1,130.5 50.2,200.58 56.6,-81.1 130,-149.58 215.1,-200.58 h 716 c 204,122.09 340.4,345.07 340.4,599.94 0,353.2 -261.9,645.1 -601.9,692.1" /></g><g
         transform="scale(1.37985)"
         id="g576"><path
           id="path578"
           style="fill:#e9e9e9;fill-opacity:1;fill-rule:nonzero;stroke:none"
           d="m 15698.6,10895.4 c 49.6,88.4 78,190.3 78,298.8 0,309.5 -230,565 -528.3,605.2 32.2,60.1 50.5,127.6 50.5,199.1 0,181.4 -117,337.7 -285.5,409.5 6.7,30.1 11.1,61.8 12.4,95 9.6,245.8 -157.8,431.7 -227.5,500.8 -183.1,352.5 -481.7,829.3 -955.7,1297.4 -353.8,349.4 -706,595.8 -993.6,766.3 -70.4,-37.4 -103.3,-65.3 -98.6,-83.4 2.9,-11.4 20.6,-19 53.1,-22.8 405,-350 651.3,-695.1 796.4,-933.2 0,0 765.1,-1255.4 572.1,-3187.6 -5,-50.2 -10.8,-97.7 -10.8,-97.7 -34.1,-288 -110.5,-683.5 -295.4,-1138.08 h 1113.9 c 25.8,63.12 42.9,130.38 50,200.38 56.6,-81.09 129.9,-149.5 214.9,-200.38 h 715.4 c 203.7,121.9 340.1,344.67 340.1,599.38 0,352.8 -261.7,644.4 -601.4,691.3" /></g><g
         transform="scale(1.26274)"
         id="g580"><path
           id="path582"
           style="fill:#bcbcbc;fill-opacity:1;fill-rule:nonzero;stroke:none"
           d="m 13892.1,10741.1 c 80.6,94 154.8,190.6 215.6,277.5 145.1,207.9 483.1,747.6 596.7,1890.3 89.5,899.6 166.2,1671.4 -232,2487.3 -167.9,343.8 -399.5,653.3 -641,903.8 -70.8,-66.4 -141.7,-132.8 -212.7,-199 274.5,-372 594.3,-900.3 812.2,-1583.6 89.3,-280 147.9,-543.5 186.2,-782.1 -116.3,-67.4 -194.5,-193.1 -194.5,-337.2 0,-124.3 58.2,-235 148.9,-306.3 -1.4,-9.8 -2.8,-19.8 -4.2,-29.5 -174.4,-81.7 -293.9,-247.8 -293.9,-439.4 0,-63.3 13.2,-123.7 36.9,-179.3 -191.9,-80.5 -343.9,-237.3 -418.2,-432.5 v -542.4 c 18,-47.2 40.4,-92.1 66.9,-134.2 -24.4,-28.6 -46.6,-59 -66.9,-90.8 v -502.6" /></g><g
         id="g584"><g
           clip-path="url(#clipPath590)"
           id="g586"><g
             transform="scale(1.29834)"
             id="g592"><path
               id="path604"
               style="fill:url(#linearGradient602);fill-opacity:1;fill-rule:nonzero;stroke:none"
               d="m 10294.1,14562 c -43.7,-920.8 -1106.55,-1405.9 -1329.99,-1507.9 -493.24,-225.1 -1534.52,-511.8 -2063.64,0 -708.7,685.6 -213.16,2527.7 830.3,3072.3 351.07,183.2 687.34,179.4 830.29,169.3 852.7,-60.4 1775.54,-840.2 1733.04,-1733.7" /></g></g></g><g
         transform="scale(2.17897)"
         id="g606"><path
           id="path608"
           style="fill:#4849b7;fill-opacity:1;fill-rule:nonzero;stroke:none"
           d="m 16003.5,3098.44 c -305.5,203.3 -751.8,-71.64 -845.6,-129.42 -207,-127.59 -584.1,-441.82 -566.1,-758.11 24.1,-423.69 747.3,-680.46 1207.2,-426.85 154.7,85.31 245.7,209.73 281.7,264.66 214.7,327.68 219.3,852.47 -77.2,1049.72" /></g><g
         transform="scale(1.39059)"
         id="g610"><path
           id="path612"
           style="fill:#ceab97;fill-opacity:1;fill-rule:nonzero;stroke:none"
           d="m 16227,9620.89 c 25.5,0 49.1,17.11 58.4,44.01 8.8,25.53 14.6,54.65 12.9,86.15 -14.3,257.55 -510,395.45 -538,402.95 0,0 -410.9,110 -1064.8,-260.35 -74.4,-42.14 -146.3,-98.09 -164.7,-185.97 l -0.2,-1.07 c -9,-44.01 21.9,-85.72 61.9,-85.72 H 16227" /></g><g
         transform="scale(1.39066)"
         id="g614"><path
           id="path616"
           style="fill:#d1b79f;fill-opacity:1;fill-rule:nonzero;stroke:none"
           d="m 16227,9508.92 c 25.5,0 49.1,17.11 58.4,44.01 8.9,25.53 14.6,54.65 12.9,86.14 -14.2,257.51 -509.9,395.43 -537.9,402.93 0,0 -410.9,110 -1064.8,-260.33 -74.4,-42.14 -146.3,-98.08 -164.7,-185.96 l -0.2,-1.07 c -8.9,-44.01 21.9,-85.72 62,-85.72 H 16227" /></g><g
         transform="scale(1.3082)"
         id="g618"><path
           id="path620"
           style="fill:#182044;fill-opacity:1;fill-rule:nonzero;stroke:none"
           d="m 13586,16208.5 -705.1,-753.6 -105.6,211 593.4,634.1 217.3,-91.5" /></g><g
         transform="scale(1.2923)"
         id="g622"><path
           id="path624"
           style="fill:#2a386d;fill-opacity:1;fill-rule:nonzero;stroke:none"
           d="m 13863.9,16198.4 -608.2,-649.9 -115.3,204.6 511.8,546.9 211.7,-101.6" /></g><g
         transform="scale(1.39922)"
         id="g626"><path
           id="path628"
           style="fill:#d92b14;fill-opacity:1;fill-rule:nonzero;stroke:none"
           d="m 12641.4,16297.5 c -0.2,0.8 -0.3,1.7 -0.5,2.5 -294.4,-14.8 -588.9,-29.6 -883.3,-44.3 87.7,-220 175.4,-440 263.2,-660 l 571.3,295.4 631.7,-445.5 58.8,63 -639.5,790.8 -1.7,-1.9" /></g><g
         transform="scale(1.31487)"
         id="g630"><path
           id="path632"
           style="fill:#d92b14;fill-opacity:1;fill-rule:nonzero;stroke:none"
           d="m 11600.3,15358.3 c -1,0.1 -1.8,0.2 -2.7,0.4 -4.9,313.7 -10,627.5 -14.9,941.3 239.6,-77.7 479.4,-155.5 719,-233.2 l -273.5,-627.7 517.3,-639.5 -62.8,-67.1 -884.3,623.8 1.9,2" /></g><g
         transform="scale(1.39626)"
         id="g634"><path
           id="path636"
           style="fill:#bd2405;fill-opacity:1;fill-rule:nonzero;stroke:none"
           d="m 12011,15613.9 479.6,248 c -66.2,141 -154.5,310.1 -251.5,438.1 -164,-8.2 -328,-16.5 -491.9,-24.7 87.9,-220.5 175.8,-440.9 263.8,-661.4" /></g><g
         transform="scale(1.31774)"
         id="g638"><path
           id="path640"
           style="fill:#bd2405;fill-opacity:1;fill-rule:nonzero;stroke:none"
           d="m 12291.4,16067.3 -228.7,-524.7 c -153.6,60.2 -338.5,141.8 -480.5,235.5 -2.8,173.9 -5.6,347.9 -8.4,521.9 239.2,-77.6 478.4,-155.2 717.6,-232.7" /></g><g
         transform="scale(1.46912)"
         id="g642"><path
           id="path644"
           style="fill:#da2c14;fill-opacity:1;fill-rule:nonzero;stroke:none"
           d="m 11130.6,15764.4 c -571.9,535.6 -1561.86,407.5 -1561.86,407.5 0,0 -62.48,-996.6 509.46,-1532.2 39.4,-36.9 79.5,-72 119.9,-105.5 v 0 c 59.9,-49.7 120.8,-95.5 181.9,-137.5 l 828.5,-625.7 866.6,926.1 -827.9,958.2 -3.4,-3.6 c -36,38.2 -73.8,75.8 -113.2,112.7" /></g><g
         transform="scale(1.46947)"
         id="g646"><path
           id="path648"
           style="fill:#e24333;fill-opacity:1;fill-rule:nonzero;stroke:none"
           d="m 9562.3,16171.9 c 0,0 -27.15,-433.2 118.34,-881.8 134.13,-49.1 290.38,-101.4 470.16,-161.5 571.6,-191.2 863.4,-187.9 1114.6,-115.5 103.1,29.7 282.4,81.4 369.5,185.7 l -394.6,456.6 -3.3,-3.5 c -36.1,38.1 -73.8,75.7 -113.2,112.6 -571.9,535.5 -1561.5,407.4 -1561.5,407.4" /></g><g
         transform="scale(1.39874)"
         id="g650"><path
           id="path652"
           style="fill:#2a386d;fill-opacity:1;fill-rule:nonzero;stroke:none"
           d="m 11345.8,16189.1 c 118.5,-111 121.5,-300.3 6.7,-423 -114.7,-122.6 -303.8,-132.1 -422.3,-21.2 -118.4,111 -121.4,300.3 -6.7,423 114.7,122.6 303.8,132.1 422.3,21.2" /></g><g
         transform="scale(1.39801)"
         id="g654"><path
           id="path656"
           style="fill:#abb6d8;fill-opacity:1;fill-rule:nonzero;stroke:none"
           d="m 11351.7,16197.5 -17.1,-18.3 c 27.7,-25.8 48.3,-56.3 62.2,-89.3 13.9,-32.9 20.8,-68.5 20.8,-104.3 0,-68.9 -25.6,-138.8 -77.4,-194.1 -56.4,-60.3 -132,-90.7 -206.7,-90.7 -65.5,0 -129.9,23.3 -180.5,70.6 -55.2,51.7 -82.9,121.9 -82.9,193.7 0,68.9 25.6,138.7 77.4,194.1 56.4,60.3 131.9,90.7 206.7,90.7 65.4,0 129.9,-23.3 180.4,-70.7 l 17.1,18.3 17.1,18.3 c -60.1,56.4 -137.3,84.2 -214.6,84.2 -88.3,0 -177.3,-36.1 -243.3,-106.6 -60.6,-64.8 -90.9,-147.1 -90.9,-228.3 -0.1,-84.6 33,-168.6 98.8,-230.2 60.2,-56.4 137.4,-84.2 214.7,-84.2 88.3,0 177.3,36 243.3,106.6 60.6,64.7 90.9,147 90.9,228.3 0.1,84.6 -33.1,168.6 -98.9,230.2 l -17.1,-18.3" /></g></g></g></svg>