<svg width="1150" height="761" viewBox="0 0 1150 761" fill="none" xmlns="http://www.w3.org/2000/svg">
<g clip-path="url(#clip0)">
<path d="M938.997 451.535C938.62 403.193 938.984 354.712 940.092 306.127C940.121 304.84 940.147 303.552 940.169 302.264C940.943 259.072 938.1 215.359 925.311 178.505C918.336 158.409 908.404 140.353 894.487 125.533C859.899 88.7012 824.452 71.5932 783.064 73.7665C741.484 75.9492 700.323 76.0599 661.109 55.0892C603.608 24.3399 523.641 35.3679 465.048 71.2919C414.179 102.483 377.388 164.06 354.309 222.568C329.773 284.768 311.428 368.752 328.463 438.712C336.192 470.455 354.331 501.844 381.833 514.997C405.179 526.161 432.265 523.561 457.76 527.064C502.447 533.205 542.552 558.4 576.851 591.353C629.408 641.848 666.891 730.411 733.695 754.953C759.096 764.287 788.553 762.465 817.639 749.764C872.62 725.749 923.917 659.017 938.087 586.795C946.629 543.249 939.333 494.637 938.997 451.535" fill="#E5EBF8"/>
<path d="M365.245 315.117C326.435 315.117 294.972 283.655 294.972 244.844C294.972 206.033 326.435 174.57 365.245 174.57C404.056 174.57 435.519 206.033 435.519 244.844C435.519 283.655 404.056 315.117 365.245 315.117V315.117ZM495.183 216.636H477.884C475.08 205.403 470.645 194.817 464.835 185.147L477.071 172.911C481.131 168.851 481.131 162.268 477.071 158.209L451.88 133.019C447.82 128.959 441.239 128.959 437.179 133.019L424.943 145.255C415.272 139.445 404.688 135.011 393.453 132.205V114.906C393.453 109.165 388.799 104.511 383.057 104.511H347.433C341.692 104.511 337.037 109.165 337.037 114.906V132.205C325.804 135.011 315.217 139.445 305.547 145.255L293.312 133.019C289.252 128.959 282.669 128.959 278.609 133.019L253.42 158.209C249.36 162.268 249.36 168.851 253.42 172.911L265.656 185.147C259.847 194.817 255.412 205.403 252.607 216.636H235.308C229.567 216.636 224.912 221.291 224.912 227.032V262.656C224.912 268.397 229.567 273.052 235.308 273.052H252.607C255.412 284.285 259.847 294.872 265.656 304.543L253.42 316.777C249.36 320.837 249.36 327.42 253.42 331.48L278.609 356.669C282.669 360.729 289.252 360.729 293.312 356.669L305.547 344.435C315.217 350.243 325.804 354.678 337.037 357.482V374.781C337.037 380.522 341.692 385.177 347.433 385.177H383.057C388.799 385.177 393.453 380.522 393.453 374.781V357.482C404.688 354.678 415.272 350.243 424.943 344.435L437.179 356.669C441.239 360.729 447.82 360.729 451.88 356.669L477.071 331.48C481.131 327.42 481.131 320.837 477.071 316.777L464.835 304.543C470.645 294.872 475.08 284.285 477.884 273.052H495.183C500.924 273.052 505.579 268.397 505.579 262.656V227.032C505.579 221.291 500.924 216.636 495.183 216.636" fill="#D3DCF2"/>
<path d="M321.828 661.568C306.576 661.568 294.211 649.204 294.211 633.952C294.211 618.7 306.576 606.334 321.828 606.334C337.08 606.334 349.445 618.7 349.445 633.952C349.445 649.204 337.08 661.568 321.828 661.568V661.568ZM372.892 622.866H366.093C364.992 618.45 363.249 614.29 360.965 610.49L365.775 605.682C367.369 604.086 367.369 601.5 365.775 599.904L355.875 590.005C354.28 588.409 351.693 588.409 350.097 590.005L345.288 594.814C341.488 592.53 337.328 590.788 332.913 589.685V582.886C332.913 580.63 331.084 578.802 328.828 578.802H314.828C312.572 578.802 310.743 580.63 310.743 582.886V589.685C306.328 590.788 302.168 592.53 298.368 594.814L293.559 590.005C291.963 588.409 289.376 588.409 287.781 590.005L277.881 599.904C276.285 601.5 276.285 604.086 277.881 605.682L282.689 610.49C280.407 614.29 278.664 618.45 277.561 622.866H270.763C268.507 622.866 266.677 624.696 266.677 626.952V640.952C266.677 643.208 268.507 645.037 270.763 645.037H277.561C278.664 649.452 280.407 653.612 282.689 657.413L277.881 662.221C276.285 663.817 276.285 666.402 277.881 667.998L287.781 677.899C289.376 679.493 291.963 679.493 293.559 677.899L298.368 673.09C302.168 675.373 306.328 677.116 310.743 678.217V685.016C310.743 687.272 312.572 689.101 314.828 689.101H328.828C331.084 689.101 332.913 687.272 332.913 685.016V678.217C337.328 677.116 341.488 675.373 345.288 673.09L350.097 677.899C351.693 679.493 354.28 679.493 355.875 677.899L365.775 667.998C367.369 666.402 367.369 663.817 365.775 662.221L360.965 657.413C363.249 653.612 364.992 649.452 366.093 645.037H372.892C375.148 645.037 376.979 643.208 376.979 640.952V626.952C376.979 624.696 375.148 622.866 372.892 622.866Z" fill="#E5EBF8"/>
<path d="M275.717 577.09C266.421 577.09 258.887 569.554 258.887 560.26C258.887 550.964 266.421 543.428 275.717 543.428C285.013 543.428 292.549 550.964 292.549 560.26C292.549 569.554 285.013 577.09 275.717 577.09ZM306.84 553.502H302.696C302.024 550.813 300.963 548.276 299.571 545.961L302.501 543.03C303.473 542.057 303.473 540.481 302.501 539.508L296.468 533.476C295.496 532.502 293.919 532.502 292.947 533.476L290.016 536.406C287.7 535.014 285.164 533.952 282.473 533.28V529.137C282.473 527.762 281.359 526.648 279.984 526.648H271.451C270.076 526.648 268.961 527.762 268.961 529.137V533.28C266.271 533.952 263.735 535.014 261.419 536.405L258.488 533.476C257.516 532.502 255.939 532.502 254.967 533.476L248.933 539.508C247.961 540.481 247.961 542.057 248.933 543.03L251.864 545.961C250.473 548.276 249.411 550.813 248.739 553.502H244.595C243.22 553.502 242.105 554.617 242.105 555.992V564.525C242.105 565.9 243.22 567.016 244.595 567.016H248.739C249.411 569.706 250.473 572.241 251.864 574.557L248.933 577.489C247.961 578.461 247.961 580.037 248.933 581.009L254.967 587.044C255.939 588.016 257.516 588.016 258.488 587.044L261.419 584.112C263.735 585.504 266.271 586.566 268.961 587.237V591.381C268.961 592.757 270.076 593.872 271.451 593.872H279.984C281.359 593.872 282.473 592.757 282.473 591.381V587.237C285.164 586.566 287.7 585.504 290.016 584.112L292.947 587.044C293.919 588.016 295.496 588.016 296.468 587.044L302.501 581.009C303.473 580.037 303.473 578.461 302.501 577.489L299.571 574.557C300.963 572.241 302.024 569.706 302.696 567.016H306.84C308.215 567.016 309.329 565.9 309.329 564.525V555.992C309.329 554.617 308.215 553.502 306.84 553.502Z" fill="#E5EBF8"/>
<path d="M707.544 720.809C707.544 736.935 595.717 750.004 457.772 750.004C319.827 750.004 208 736.935 208 720.809C208 704.685 319.827 691.614 457.772 691.614C595.717 691.614 707.544 704.685 707.544 720.809" fill="#F4F6F5"/>
<path d="M722.087 690.954H532.793C532.793 719.288 555.761 742.256 584.095 742.256H670.785C699.119 742.256 722.087 719.288 722.087 690.954V690.954ZM722.087 643.548H532.793V672.954H722.087V643.548ZM780.288 501.065C743.248 533.033 721.123 578.881 721.123 627.811H533.759V627.8C533.759 579.03 511.911 533.15 474.929 501.357C424.247 457.781 392.431 392.902 393.477 320.569C395.241 198.472 494.365 95.9265 616.344 90.2918C750.617 84.0905 861.429 191.117 861.429 324.025C861.429 394.808 829.968 458.189 780.288 501.065Z" fill="#A1AFDF"/>
<path d="M708.425 492.164L719.337 507.335L726.204 509.749C728.759 510.647 732.139 514.699 731.213 517.243C726.481 530.283 710.993 565.552 707.071 570.637C707.071 570.637 701.839 566.28 703.741 561.844C705.644 557.408 708.407 524.009 708.407 524.009L697.995 510.016L708.425 492.164" fill="#F1D862"/>
<path d="M733.888 516.082C733.888 516.082 726.968 507.98 722.823 508.56C722.823 508.56 726.453 514.293 725.089 521.934C723.035 528.26 717.935 548.896 706.509 544.408C704.553 551.485 701.963 565.669 703.06 572.429C703.06 572.429 706.72 573.274 708.832 571.045C708.832 571.045 716.615 560.189 719.248 556.045L732.344 523.826L741.697 523.504L743.355 519.748L733.888 516.082" fill="#4359B1"/>
<path d="M743.885 362.796C743.885 362.796 640.224 381.816 626.712 388.805C613.203 395.795 624.624 412.2 642.869 437.105C661.116 462.011 701.181 519.72 701.181 519.72L716.897 501.762L671.908 421.89C671.908 421.89 779.925 424.081 790.568 411.503C801.209 398.927 800.857 381.993 795.405 361.937L743.885 362.796" fill="#4359B1"/>
<path d="M661.065 154.319C650.804 154.077 626.899 196.04 695.121 219.645C718.419 227.707 762.941 217.799 772.133 205.616C772.133 205.616 735.203 125.267 695.977 129.172C663.228 132.433 661.065 154.319 661.065 154.319Z" fill="#4359B1"/>
<path d="M580.175 330.633L595.649 320.692L616.013 323.848L685.505 309.456L687.856 329.821L618.505 331.854L611.077 333.529C608.916 334.016 606.651 333.702 604.703 332.648L595.425 327.626L581.795 335.476L580.175 330.633Z" fill="#F1D862"/>
<path d="M705.964 220.896C689.985 222.958 697.859 246.753 690.931 305.461L623.2 316.832L626.868 333.293C626.868 333.293 700.281 332.398 711.48 330.548C723.765 300.133 732.959 217.409 705.964 220.896" fill="#D51E26"/>
<path d="M735.672 217.685C728.531 224.333 729.68 232.499 719.293 232.068C703.091 234.337 703.6 213.036 703.6 213.036C697.369 215.097 685.919 216.122 676.803 202.406C666.428 186.796 663.548 172.851 662.013 159.628C661.028 151.147 664.611 145.665 678.928 141.703C693.247 137.723 703.857 142.037 715.571 157.283C725.157 169.795 726.804 199.181 726.804 199.181C729.328 204.582 735.672 217.685 735.672 217.685" fill="#F1D862"/>
<path d="M795.405 361.937C795.405 361.937 761.605 364.716 743.885 362.796C737.139 309.852 729.229 297.588 729.229 297.588C711.007 295.324 705.624 289.476 705.631 280.705C702.576 245.326 697.859 225.953 697.859 225.953C700.267 222.042 704.819 221.169 704.819 221.169C704.819 221.169 706.587 233.56 719.301 232.06C733.02 230.441 726.809 214.76 726.809 214.76C734.136 209.956 741.928 209.593 750 211.404C758.073 213.214 765.031 218.429 770.573 224.572C783.621 239.028 784.224 254.294 786.347 273.652C788.471 293.009 784.98 300.38 786.049 323.953C786.808 340.656 794.339 357.816 795.405 361.937" fill="#EC1D27"/>
<path d="M635.433 356.008L644.443 341.175C645.601 339.609 647.331 338.564 649.255 338.265L667.555 335.416L743.964 322.532L744.785 342.121L672.884 343.281L666.121 347.556C664.153 348.8 661.799 349.211 659.491 348.711L648.507 346.332L637.804 359.362L635.433 356.008" fill="#F1D862"/>
<path d="M738.533 223.189C741.627 216.148 744.648 211.243 753.103 211.548C776.769 212.404 760.5 247.525 777.147 315.892C778.835 322.82 779.791 341.348 760.179 342.452C740.567 343.556 684.473 349.644 684.473 349.644L676.803 327.073L745.592 317.556C745.592 317.556 730.52 241.417 738.533 223.189" fill="#ED1F24"/>
<path d="M615.057 352.973H492.236L470.979 284.821C469.193 279.098 473.468 273.286 479.463 273.286H583.663C587.552 273.286 590.989 275.814 592.147 279.526L615.057 352.973Z" fill="#D3D4D3"/>
<path d="M678.275 360.122H497.589C494.633 360.122 492.236 357.727 492.236 354.769V352.973H678.275C679.621 352.973 680.712 354.065 680.712 355.411V357.685C680.712 359.032 679.621 360.122 678.275 360.122" fill="#A4A6A9"/>
<path d="M611.276 360.122H497.697C494.681 360.122 492.236 357.679 492.236 354.663V352.973H615.057V356.343C615.057 358.431 613.365 360.122 611.276 360.122Z" fill="#BBBCBD"/>
<path d="M536.228 305.154C535.956 305.154 535.697 305.212 535.433 305.25C535.393 309.281 532.881 312.557 529.649 313.033C529.649 313.066 529.643 313.097 529.643 313.129C529.643 317.534 532.591 321.105 536.228 321.105C539.865 321.105 542.813 317.534 542.813 313.129C542.813 308.725 539.865 305.154 536.228 305.154" fill="#F4F6F5"/>
<path d="M669.388 542.68L670.781 558.509L672.972 565.45C673.787 568.032 672.573 573.166 669.984 573.956C656.713 577.996 619.205 586.772 612.784 586.687C612.784 586.687 613.129 579.886 617.82 578.746C622.511 577.605 650.884 559.773 650.884 559.773L650.761 546.376L669.388 542.68Z" fill="#F1D862"/>
<path d="M673.223 577.618C673.223 577.618 673.851 564.684 672.015 561.301C672.015 561.301 669.485 568.377 662.556 571.87C656.263 574.024 636.696 582.329 633.428 570.497C626.593 573.178 613.692 579.62 608.944 584.553C608.944 584.553 610.464 587.989 613.516 588.34C613.516 588.34 626.869 588.05 631.763 587.67L666.765 580.512L671.265 586.098L675.265 585.169L673.223 577.618" fill="#4359B1"/>
<path d="M795.405 361.937C804.632 381.269 822.807 426.855 776.448 429.579C723.076 432.715 656.596 432.162 656.596 432.162L672.289 549.033L647.192 553.794C647.192 553.794 640.444 512.892 631 476.517C621.556 440.142 600.616 404.293 628.291 394.29C655.965 384.29 795.405 361.937 795.405 361.937" fill="#4A6ABC"/>
<path d="M572.833 490.379L481.823 608.542C479.825 611.133 480.656 613.986 480.957 614.797C481.26 615.609 482.475 618.262 485.433 618.262H660.231C663.192 618.262 664.407 615.609 664.709 614.797C665.011 613.985 665.841 611.133 663.844 608.542L572.833 490.379ZM660.231 629.637H485.433C479.611 629.637 474.535 625.711 472.184 619.387C469.835 613.064 470.816 605.968 474.745 600.869L566.34 481.947L485.025 376.372C483.24 374.053 483.376 370.456 485.331 368.336C487.285 366.217 490.319 366.379 492.104 368.699L572.833 473.514L653.563 368.699C655.348 366.38 658.383 366.22 660.335 368.336C662.291 370.456 662.425 374.053 660.641 376.372L579.327 481.947L670.923 600.869C674.849 605.968 675.831 613.064 673.483 619.385C671.133 625.709 666.055 629.637 660.231 629.637" fill="#1C1B1B"/>
<path d="M727.909 373.659H417.759C414.02 373.659 410.988 370.629 410.988 366.891C410.988 363.153 414.02 360.123 417.759 360.123H727.909C731.647 360.123 734.677 363.153 734.677 366.891C734.677 370.629 731.647 373.659 727.909 373.659Z" fill="#A47444"/>
<path d="M817.939 611.684H737.945L756.289 441.164L762.645 441.848L745.061 605.292H810.823L793.299 442.39L799.652 441.708L817.939 611.684" fill="#1C1B1B"/>
<path d="M726.639 623.718H792.389L772.313 438.898H746.715L726.639 623.718ZM799.515 630.111H719.513L740.979 432.506H778.049L799.515 630.111" fill="#1C1B1B"/>
<path d="M815.307 442.984H714.683V429.169H815.307V442.984Z" fill="#A47444"/>
<path d="M820.189 442.984H810.553L820.189 390.897H829.824L820.189 442.984Z" fill="#A47444"/>
<path d="M736.515 218.517C708.855 226.952 712.845 199.532 712.845 199.532C723.348 201.85 720.475 176.686 709.763 175.266C702.939 174.361 704.455 184.677 704.455 184.677C680.119 199.38 650.068 173.145 652.848 154.391C654.349 144.261 656.848 137.613 668.581 130.528C682.975 121.837 697.204 125.105 710.101 130.01C737.844 140.561 738.307 168.566 767.217 169.902C832.812 172.932 817.552 216.361 854.463 227.165C875.677 233.377 902.732 239.237 904.445 274.244C906.525 316.7 831.78 318.009 809.204 313.188C779.821 306.913 775.921 257.837 769.835 239.349C762.328 216.545 754.833 212.93 736.515 218.517" fill="#4A6ABC"/>
<path d="M456.908 302.405C442.604 302.405 436.949 308.314 436.949 321.028C436.949 322.197 434.727 322.197 434.727 321.028C434.727 308.314 430.203 302.405 414.769 302.405C413.615 302.405 413.616 300.176 414.769 300.176C430.679 300.176 434.727 292.81 434.727 281.574C434.727 280.406 436.949 280.406 436.949 281.574C436.949 294.958 442.365 300.176 456.907 300.176C458.06 300.176 458.06 302.405 456.908 302.405" fill="#4359B1"/>
<path d="M387.843 241.34C367.904 241.34 360.023 249.577 360.023 267.301C360.023 268.93 356.923 268.93 356.923 267.301C356.923 249.577 350.616 241.34 329.104 241.34C327.495 241.34 327.496 238.234 329.104 238.234C351.281 238.234 356.923 227.966 356.923 212.304C356.923 210.674 360.023 210.674 360.023 212.304C360.023 230.96 367.572 238.234 387.841 238.234C389.449 238.234 389.451 241.34 387.843 241.34" fill="#4359B1"/>
<path d="M466.537 121.628C430.807 121.628 416.681 136.391 416.681 168.153C416.681 171.073 411.127 171.073 411.127 168.153C411.127 136.391 399.823 121.628 361.271 121.628C358.388 121.628 358.389 116.061 361.272 116.061C401.016 116.061 411.128 97.6614 411.128 69.5907C411.128 66.6707 416.681 66.6707 416.681 69.5907C416.681 103.024 430.211 116.061 466.536 116.061C469.419 116.061 469.421 121.628 466.537 121.628Z" fill="#4359B1"/>
<path d="M444.229 729.501C444.229 734.505 421.547 738.561 393.567 738.561C365.587 738.561 342.904 734.505 342.904 729.501C342.904 724.499 365.587 720.442 393.567 720.442C421.547 720.442 444.229 724.499 444.229 729.501" fill="#E9EAEA"/>
<path d="M440.907 732.002C430.127 735.268 413.441 735.038 401.737 732.002C398.963 731.284 396.404 729.98 395.844 727.168L384.707 671.305H457.935L446.8 727.168C446.239 729.98 443.648 731.172 440.907 732.002" fill="#BBBCBD"/>
<path d="M457.935 671.305C457.935 668.35 441.593 665.956 421.435 665.956C401.277 665.956 384.935 668.35 384.935 671.305C384.935 674.259 401.277 676.653 421.435 676.653C441.593 676.653 457.935 674.259 457.935 671.305Z" fill="#7A7D82"/>
<path d="M456.411 678.957C448.773 685.225 440.404 690.6 431.511 694.901C428.989 696.121 426.311 697.349 424.672 699.62C423.033 701.892 422.973 705.573 425.321 707.1C426.313 707.744 427.793 708.212 427.791 709.393C427.789 709.917 427.459 710.378 427.113 710.772C424.639 713.601 420.889 714.95 418.005 717.362C415.121 719.774 413.261 724.418 415.805 727.188C416.947 728.435 418.363 729.489 419.941 730.09C422.013 730.878 422.468 734.356 423.281 734.357C434.251 734.366 440.907 732.002 440.907 732.002C443.772 732.002 446.239 729.98 446.8 727.168L456.411 678.957Z" fill="#D3D4D3"/>
<path d="M408.68 392.753C406.333 383.086 406.832 374.197 408.449 364.382C410.065 354.568 414.389 345.32 424.168 347.141C433.528 348.883 436.896 360.269 437.433 368.479C438.179 379.869 434.519 390.812 433.276 402.017C431.392 418.989 435.283 437.541 439.733 454.028C443.303 467.252 447.757 477.945 451.225 493.39C453.357 502.885 453.943 516.084 450.836 528.856C447.697 541.756 427.189 587.908 423.204 635.244C421.312 574.706 409.289 557.736 405.291 537.084C403.64 528.56 401.832 520.112 402.6 511.464C404.559 489.414 410.671 467.966 414.343 446.137C418.016 424.308 414.227 415.605 408.68 392.753" fill="#4A6ABC"/>
<path d="M421.023 672.588C420.987 672.588 420.949 672.586 420.912 672.583C420.205 672.523 419.681 671.9 419.743 671.193C429.088 562.509 421.616 376.1 421.539 374.231C421.511 373.521 422.061 372.924 422.769 372.895C423.457 372.867 424.076 373.417 424.104 374.125C424.181 375.996 431.659 562.568 422.301 671.414C422.243 672.083 421.683 672.588 421.023 672.588" fill="#1B1E45"/>
<path d="M425.545 560.928C425.527 560.928 425.508 560.928 425.487 560.926C424.779 560.894 424.231 560.295 424.261 559.587C425.697 527.629 440.291 517.714 440.912 517.308C441.505 516.92 442.301 517.086 442.689 517.678C443.077 518.27 442.913 519.064 442.321 519.455C442.18 519.548 428.199 529.183 426.827 559.701C426.796 560.389 426.228 560.928 425.545 560.928" fill="#1B1E45"/>
<path d="M425.74 537.768C425.065 537.768 424.499 537.24 424.46 536.557C422.539 504.118 410.501 499.566 410.38 499.524C409.716 499.293 409.353 498.568 409.579 497.9C409.801 497.232 410.509 496.869 411.183 497.086C411.744 497.266 424.983 501.929 427.023 536.408C427.064 537.114 426.524 537.722 425.815 537.765C425.791 537.766 425.764 537.768 425.74 537.768" fill="#1B1E45"/>
<path d="M425.625 497.898C425.584 497.898 425.541 497.898 425.501 497.893C424.796 497.825 424.279 497.198 424.347 496.492C426.761 471.337 434.736 464.037 435.073 463.739C435.605 463.271 436.416 463.321 436.885 463.852C437.353 464.381 437.305 465.189 436.777 465.658C436.669 465.758 429.199 472.835 426.901 496.739C426.837 497.403 426.28 497.898 425.625 497.898Z" fill="#1B1E45"/>
<path d="M341.093 481.989C338.275 475.012 326.136 448.62 328.115 439.613C333.336 441.695 347.868 464.213 352.644 474.3C358.448 486.024 369.761 503.432 377.52 514.096C383.755 522.628 387.296 524.872 391.961 534.465C395.407 541.271 400.764 569.539 401.145 579.703C401.964 598.683 397.044 602.443 402.592 638.284C390.749 593.211 365.511 566.363 361.428 553.011C356.74 537.779 356.605 531.592 352.995 515.309C349.179 499.072 350.009 503.179 341.093 481.989" fill="#4A6ABC"/>
<path d="M343.748 473.05C343.747 473.052 343.747 473.052 343.745 473.052C343.747 473.052 343.747 473.052 343.748 473.05ZM343.745 473.053C343.684 473.105 343.619 473.153 343.552 473.192C343.617 473.154 343.683 473.106 343.745 473.053ZM407.46 673.872C406.797 673.872 406.236 673.361 406.181 672.689C399.808 591.919 347.149 479.421 342.251 473.188C342.136 473.12 342.031 473.036 341.94 472.931C341.472 472.396 341.525 471.586 342.059 471.117C342.424 470.8 342.988 470.71 343.439 470.89C345.603 471.77 361.143 504.653 374.771 540.467C388.327 576.087 405.224 627.907 408.741 672.486C408.797 673.193 408.269 673.812 407.563 673.868C407.528 673.871 407.493 673.872 407.46 673.872" fill="#1B1E45"/>
<path d="M389.997 590.333C389.427 590.333 388.907 589.95 388.757 589.373C382.8 566.421 389.835 554.817 390.997 554.081C391.595 553.701 392.389 553.878 392.768 554.48C393.073 554.96 393.019 555.566 392.675 555.984C392.336 556.457 385.467 566.48 391.241 588.728C391.42 589.414 391.008 590.114 390.321 590.293C390.213 590.322 390.104 590.333 389.997 590.333" fill="#1B1E45"/>
<path d="M384.84 573.414C384.328 573.414 383.847 573.106 383.647 572.602C374.971 550.718 365.864 549.712 364.853 549.669C364.252 549.645 363.712 549.201 363.607 548.606L364.871 548.384L364.951 547.104C366.887 547.185 376.952 548.752 386.033 571.657C386.295 572.316 385.972 573.062 385.313 573.324C385.157 573.385 384.997 573.414 384.84 573.414" fill="#1B1E45"/>
<path d="M374.853 544.674C374.284 544.674 373.764 544.294 373.613 543.717C368.779 525.404 371.711 517.08 372.896 516.604C373.557 516.342 374.303 516.661 374.565 517.321C374.713 517.69 374.677 518.088 374.5 518.412C374.317 518.83 371.521 525.729 376.095 543.064C376.276 543.749 375.868 544.452 375.181 544.632C375.071 544.66 374.961 544.674 374.853 544.674Z" fill="#1B1E45"/>
<path d="M488.336 539.327C491.989 535.087 508.404 520.351 515.708 521.067C514.855 525.189 502.388 539.704 497.439 545.707C491.197 552.577 484.383 565.535 481.728 574.14C479.548 581.043 480.031 583.98 477.123 590.337C474.908 594.689 463.451 609.601 459.207 615.052C451.28 624.959 442.569 628.55 434.177 653.26C439.777 620.985 444.288 589.557 450.429 580.217C457.153 570.061 461.025 567.176 470.04 558.495C479.351 550.105 476.584 551.912 488.336 539.327" fill="#6A80C8"/>
<path d="M429.445 673.872C429.361 673.872 429.275 673.862 429.188 673.847C428.493 673.705 428.044 673.028 428.185 672.332C434.388 641.755 447.88 606.644 463.396 580.701C475.131 560.061 488.103 545.24 492.985 539.66C493.735 538.805 494.447 537.991 494.701 537.663C494.935 537.056 495.607 536.716 496.24 536.892C496.665 537.009 497.011 537.348 497.137 537.771C497.369 538.548 497.324 538.601 494.919 541.351C490.081 546.879 477.235 561.555 465.615 581.995C450.224 607.728 436.852 642.531 430.703 672.843C430.579 673.45 430.043 673.872 429.445 673.872" fill="#1B1E45"/>
<path d="M447.8 615.693C447.612 615.693 447.423 615.652 447.241 615.564C446.603 615.257 446.336 614.488 446.645 613.849C453.84 598.977 463.756 597.538 465.669 597.4L465.803 598.676L467.087 598.721C467.063 599.377 466.508 599.913 465.853 599.961C464.832 600.034 455.675 601.08 448.956 614.968C448.735 615.426 448.277 615.693 447.8 615.693" fill="#1B1E45"/>
<path d="M452.996 604.253C452.832 604.253 452.665 604.221 452.505 604.156C451.851 603.885 451.539 603.134 451.811 602.478C458.151 587.125 454.384 581.42 454.091 581.014C453.712 580.654 453.577 580.084 453.796 579.577C454.077 578.926 454.835 578.629 455.481 578.904C455.557 578.936 462.056 584.392 454.181 603.458C453.979 603.954 453.5 604.253 452.996 604.253" fill="#1B1E45"/>
<path d="M463.104 585.114C462.835 585.114 462.561 585.03 462.329 584.854C461.765 584.426 461.653 583.62 462.083 583.054C469.536 573.229 475.635 571.741 477.323 571.517L477.564 572.778L478.823 573.028C478.715 573.568 478.204 573.99 477.66 574.064C476.633 574.198 471.157 575.341 464.129 584.606C463.875 584.938 463.492 585.114 463.104 585.114" fill="#1B1E45"/>
<path d="M660.725 89.0854C660.725 72.6334 647.389 59.2974 630.939 59.2974C614.488 59.2974 601.152 72.6334 601.152 89.0854C601.152 105.536 614.488 118.872 630.939 118.872C647.389 118.872 660.725 105.536 660.725 89.0854Z" fill="#4359B1"/>
<path d="M610.745 87.3574L623.045 82.1601L624.161 85.6227L615.179 89.1254L624.161 92.6307L623.045 96.092L610.745 90.8934V87.3574" fill="#F2D264"/>
<path d="M629.225 102.987H624.849L634.464 75.2947H638.781L629.225 102.987Z" fill="#F2D264"/>
<path d="M652.884 90.8934L640.583 96.092L639.468 92.6307L648.451 89.1254L639.468 85.6227L640.583 82.1601L652.884 87.3574V90.8934" fill="#F2D264"/>
<path d="M612.773 35.4067C612.773 15.852 596.921 1.23588e-05 577.367 1.23588e-05C557.813 1.23588e-05 541.96 15.852 541.96 35.4067C541.96 54.9613 557.813 70.8134 577.367 70.8134C596.921 70.8134 612.773 54.9613 612.773 35.4067Z" fill="#4359B1"/>
<path d="M559.049 29.092C559.209 29.6427 559.387 30.2614 559.581 30.9521C559.776 31.6427 559.983 32.3574 560.203 33.0934C560.425 33.8307 560.648 34.5681 560.876 35.3054C561.103 36.0427 561.324 36.7254 561.537 37.356C561.713 36.672 561.892 35.9281 562.075 35.1241C562.256 34.3201 562.427 33.488 562.589 32.6307C562.751 31.7734 562.909 30.9187 563.064 30.068C563.219 29.216 563.364 28.396 563.497 27.604H566.756C566.284 29.9374 565.741 32.3027 565.128 34.7014C564.515 37.1014 563.851 39.38 563.136 41.5374H560.267C559.799 40.2507 559.344 38.9014 558.903 37.4854C558.461 36.0734 558.027 34.6547 557.597 33.2347C557.168 34.6547 556.74 36.0734 556.311 37.4854C555.88 38.9014 555.431 40.2507 554.961 41.5374H552.095C551.38 39.38 550.717 37.1014 550.105 34.7014C549.493 32.3027 548.952 29.9374 548.48 27.604H551.877C552.013 28.396 552.16 29.216 552.323 30.068C552.484 30.9187 552.652 31.7734 552.828 32.6307C553.003 33.488 553.181 34.3201 553.364 35.1241C553.544 35.9281 553.731 36.672 553.919 37.356C554.16 36.6987 554.395 36.0027 554.624 35.264C554.852 34.528 555.073 33.7907 555.288 33.0534C555.503 32.316 555.701 31.6054 555.883 30.9227C556.064 30.2387 556.228 29.628 556.376 29.092H559.049" fill="#F2D264"/>
<path d="M578.651 29.092C578.812 29.6427 578.988 30.2614 579.183 30.9521C579.377 31.6427 579.585 32.3574 579.805 33.0934C580.027 33.8307 580.251 34.5681 580.479 35.3054C580.704 36.0427 580.925 36.7254 581.14 37.356C581.315 36.672 581.493 35.9281 581.676 35.1241C581.857 34.3201 582.029 33.488 582.191 32.6307C582.352 31.7734 582.511 30.9187 582.665 30.068C582.82 29.216 582.965 28.396 583.099 27.604H586.357C585.885 29.9374 585.343 32.3027 584.729 34.7014C584.116 37.1014 583.452 39.38 582.737 41.5374H579.869C579.4 40.2507 578.945 38.9014 578.504 37.4854C578.063 36.0734 577.628 34.6547 577.2 33.2347C576.769 34.6547 576.341 36.0734 575.912 37.4854C575.481 38.9014 575.033 40.2507 574.563 41.5374H571.697C570.981 39.38 570.319 37.1014 569.707 34.7014C569.095 32.3027 568.553 29.9374 568.083 27.604H571.48C571.615 28.396 571.761 29.216 571.925 30.068C572.087 30.9187 572.255 31.7734 572.429 32.6307C572.604 33.488 572.783 34.3201 572.965 35.1241C573.147 35.9281 573.332 36.672 573.52 37.356C573.761 36.6987 573.996 36.0027 574.225 35.264C574.453 34.528 574.675 33.7907 574.889 33.0534C575.104 32.316 575.303 31.6054 575.484 30.9227C575.665 30.2387 575.829 29.628 575.979 29.092H578.651" fill="#F2D264"/>
<path d="M598.255 29.092C598.415 29.6427 598.592 30.2614 598.785 30.9521C598.98 31.6427 599.188 32.3574 599.408 33.0934C599.629 33.8307 599.853 34.5681 600.081 35.3054C600.308 36.0427 600.529 36.7254 600.743 37.356C600.919 36.672 601.096 35.9281 601.279 35.1241C601.46 34.3201 601.632 33.488 601.793 32.6307C601.955 31.7734 602.113 30.9187 602.268 30.068C602.424 29.216 602.568 28.396 602.703 27.604H605.96C605.488 29.9374 604.945 32.3027 604.332 34.7014C603.719 37.1014 603.055 39.38 602.34 41.5374H599.472C599.003 40.2507 598.548 38.9014 598.107 37.4854C597.665 36.0734 597.231 34.6547 596.803 33.2347C596.372 34.6547 595.944 36.0734 595.515 37.4854C595.085 38.9014 594.636 40.2507 594.165 41.5374H591.3C590.585 39.38 589.923 37.1014 589.311 34.7014C588.699 32.3027 588.156 29.9374 587.685 27.604H591.083C591.217 28.396 591.365 29.216 591.528 30.068C591.689 30.9187 591.857 31.7734 592.033 32.6307C592.207 33.488 592.385 34.3201 592.568 35.1241C592.749 35.9281 592.935 36.672 593.123 37.356C593.365 36.6987 593.599 36.0027 593.828 35.264C594.056 34.528 594.277 33.7907 594.492 33.0534C594.707 32.316 594.905 31.6054 595.088 30.9227C595.268 30.2387 595.432 29.628 595.581 29.092H598.255" fill="#F2D264"/>
<path d="M575.611 139.795C575.611 128.24 566.244 118.872 554.688 118.872C543.133 118.872 533.764 128.24 533.764 139.795C533.764 151.351 543.133 160.717 554.688 160.717C566.244 160.717 575.611 151.351 575.611 139.795Z" fill="#E5EBF8"/>
<path d="M532.375 191.208C532.375 185.429 527.692 180.745 521.915 180.745C516.136 180.745 511.452 185.429 511.452 191.208C511.452 196.985 516.136 201.669 521.915 201.669C527.692 201.669 532.375 196.985 532.375 191.208Z" fill="#E5EBF8"/>
<path d="M535.791 245.817C535.791 243.146 533.627 240.981 530.956 240.981C528.285 240.981 526.12 243.146 526.12 245.817C526.12 248.488 528.285 250.652 530.956 250.652C533.627 250.652 535.791 248.488 535.791 245.817Z" fill="#E5EBF8"/>
<path d="M622.196 144.009C622.196 130.125 610.941 118.872 597.059 118.872C583.176 118.872 571.923 130.125 571.923 144.009C571.923 157.891 583.176 169.145 597.059 169.145C610.941 169.145 622.196 157.891 622.196 144.009Z" fill="#4359B1"/>
<path d="M585.812 138.38H588.004V148.121H585.812V143.989H582.129V148.121H579.936V138.38H582.129V142.105H585.812V138.38Z" fill="#F2D264"/>
<path d="M597.48 138.38V140.249H594.54V148.121H592.348V140.249H589.411V138.38H597.48" fill="#F2D264"/>
<path d="M601.331 138.38C601.5 138.689 601.696 139.072 601.916 139.525C602.137 139.98 602.368 140.472 602.607 141.001C602.847 141.531 603.084 142.073 603.317 142.625C603.553 143.179 603.773 143.699 603.98 144.185C604.188 143.699 604.408 143.179 604.644 142.625C604.877 142.073 605.115 141.531 605.355 141.001C605.593 140.472 605.824 139.98 606.045 139.525C606.265 139.072 606.461 138.689 606.631 138.38H608.627C608.72 139.027 608.808 139.751 608.887 140.552C608.967 141.353 609.036 142.187 609.097 143.053C609.157 143.921 609.215 144.791 609.265 145.661C609.317 146.533 609.363 147.353 609.4 148.121H607.263C607.235 147.175 607.197 146.144 607.149 145.029C607.103 143.913 607.033 142.789 606.94 141.656C606.769 142.049 606.583 142.485 606.375 142.963C606.168 143.44 605.964 143.919 605.761 144.396C605.56 144.875 605.365 145.331 605.177 145.767C604.988 146.203 604.829 146.575 604.699 146.884H603.165C603.035 146.575 602.873 146.203 602.687 145.767C602.497 145.331 602.303 144.875 602.1 144.396C601.899 143.919 601.695 143.44 601.487 142.963C601.28 142.485 601.092 142.049 600.924 141.656C600.829 142.789 600.759 143.913 600.712 145.029C600.665 146.144 600.628 147.175 600.6 148.121H598.464C598.5 147.353 598.545 146.533 598.596 145.661C598.648 144.791 598.704 143.921 598.765 143.053C598.827 142.187 598.897 141.353 598.977 140.552C599.056 139.751 599.143 139.027 599.237 138.38H601.331Z" fill="#F2D264"/>
<path d="M617.861 146.239V148.121H611.353V138.38H613.545V146.239H617.861" fill="#F2D264"/>
<path d="M568.052 165.033C568.052 153.961 559.077 144.987 548.005 144.987C536.935 144.987 527.96 153.961 527.96 165.033C527.96 176.104 536.935 185.08 548.005 185.08C559.077 185.08 568.052 176.104 568.052 165.033Z" fill="#4359B1"/>
<path d="M540.509 170.199C538.867 170.199 537.615 169.741 536.755 168.828C535.893 167.915 535.464 166.616 535.464 164.935C535.464 164.099 535.595 163.352 535.857 162.696C536.12 162.04 536.48 161.485 536.936 161.033C537.393 160.581 537.937 160.239 538.571 160.005C539.203 159.772 539.887 159.656 540.627 159.656C541.053 159.656 541.443 159.687 541.793 159.749C542.144 159.813 542.449 159.887 542.711 159.968C542.975 160.051 543.193 160.136 543.368 160.224C543.543 160.312 543.669 160.379 543.747 160.428L543.092 162.265C542.779 162.1 542.417 161.96 542.004 161.843C541.592 161.725 541.123 161.668 540.596 161.668C540.248 161.668 539.904 161.725 539.569 161.843C539.233 161.96 538.936 162.147 538.68 162.404C538.423 162.661 538.215 162.995 538.06 163.403C537.904 163.812 537.825 164.307 537.825 164.891C537.825 165.357 537.877 165.792 537.98 166.196C538.081 166.6 538.247 166.947 538.476 167.239C538.703 167.529 539.003 167.761 539.372 167.931C539.741 168.101 540.189 168.185 540.713 168.185C541.044 168.185 541.341 168.167 541.603 168.128C541.867 168.089 542.099 168.043 542.304 167.989C542.508 167.936 542.688 167.876 542.843 167.807C542.997 167.74 543.14 167.676 543.265 167.617L543.892 169.44C543.572 169.635 543.12 169.811 542.536 169.965C541.953 170.121 541.277 170.199 540.509 170.199" fill="#F2D264"/>
<path d="M548.356 168.259C548.676 168.259 548.94 168.232 549.149 168.179C549.36 168.125 549.527 168.052 549.653 167.96C549.779 167.868 549.868 167.759 549.916 167.632C549.964 167.505 549.988 167.365 549.988 167.209C549.988 166.879 549.833 166.604 549.523 166.385C549.211 166.167 548.676 165.931 547.919 165.679C547.588 165.561 547.257 165.428 546.925 165.277C546.595 165.127 546.3 164.936 546.036 164.708C545.773 164.48 545.56 164.203 545.395 163.877C545.229 163.551 545.147 163.156 545.147 162.688C545.147 162.221 545.235 161.801 545.409 161.427C545.585 161.053 545.832 160.735 546.153 160.472C546.475 160.209 546.864 160.008 547.32 159.867C547.776 159.725 548.292 159.656 548.867 159.656C549.545 159.656 550.135 159.728 550.631 159.875C551.127 160.02 551.535 160.18 551.856 160.355L551.2 162.149C550.917 162.003 550.603 161.875 550.259 161.763C549.913 161.651 549.497 161.595 549.012 161.595C548.468 161.595 548.076 161.671 547.837 161.821C547.599 161.972 547.48 162.203 547.48 162.513C547.48 162.699 547.524 162.853 547.612 162.98C547.7 163.107 547.823 163.22 547.983 163.323C548.144 163.425 548.328 163.517 548.537 163.6C548.747 163.683 548.977 163.768 549.231 163.855C549.756 164.049 550.212 164.241 550.601 164.432C550.989 164.621 551.313 164.843 551.571 165.095C551.828 165.348 552.021 165.644 552.147 165.984C552.273 166.324 552.336 166.739 552.336 167.224C552.336 168.167 552.005 168.899 551.345 169.419C550.684 169.939 549.688 170.199 548.356 170.199C547.908 170.199 547.504 170.172 547.145 170.119C546.785 170.065 546.467 169.999 546.191 169.921C545.913 169.844 545.675 169.761 545.476 169.673C545.276 169.587 545.108 169.504 544.972 169.425L545.613 167.617C545.916 167.783 546.287 167.931 546.729 168.063C547.172 168.193 547.713 168.259 548.356 168.259" fill="#F2D264"/>
<path d="M556.843 168.259C557.163 168.259 557.427 168.232 557.637 168.179C557.847 168.125 558.013 168.052 558.141 167.96C558.265 167.868 558.355 167.759 558.403 167.632C558.451 167.505 558.476 167.365 558.476 167.209C558.476 166.879 558.32 166.604 558.009 166.385C557.699 166.167 557.163 165.931 556.405 165.679C556.075 165.561 555.744 165.428 555.413 165.277C555.083 165.127 554.787 164.936 554.524 164.708C554.26 164.48 554.047 164.203 553.881 163.877C553.716 163.551 553.635 163.156 553.635 162.688C553.635 162.221 553.721 161.801 553.896 161.427C554.072 161.053 554.319 160.735 554.641 160.472C554.961 160.209 555.351 160.008 555.808 159.867C556.263 159.725 556.779 159.656 557.353 159.656C558.033 159.656 558.621 159.728 559.117 159.875C559.613 160.02 560.021 160.18 560.343 160.355L559.687 162.149C559.404 162.003 559.091 161.875 558.745 161.763C558.4 161.651 557.984 161.595 557.499 161.595C556.955 161.595 556.563 161.671 556.324 161.821C556.087 161.972 555.968 162.203 555.968 162.513C555.968 162.699 556.011 162.853 556.099 162.98C556.187 163.107 556.311 163.22 556.471 163.323C556.631 163.425 556.815 163.517 557.025 163.6C557.233 163.683 557.464 163.768 557.717 163.855C558.243 164.049 558.7 164.241 559.089 164.432C559.477 164.621 559.8 164.843 560.057 165.095C560.315 165.348 560.508 165.644 560.635 165.984C560.76 166.324 560.823 166.739 560.823 167.224C560.823 168.167 560.492 168.899 559.832 169.419C559.171 169.939 558.175 170.199 556.843 170.199C556.395 170.199 555.991 170.172 555.632 170.119C555.272 170.065 554.953 169.999 554.677 169.921C554.4 169.844 554.161 169.761 553.963 169.673C553.763 169.587 553.595 169.504 553.459 169.425L554.1 167.617C554.403 167.783 554.773 167.931 555.216 168.063C555.659 168.193 556.201 168.259 556.843 168.259" fill="#F2D264"/>
<path d="M581.492 195.165C581.492 185.38 573.56 177.448 563.776 177.448C553.991 177.448 546.059 185.38 546.059 195.165C546.059 204.951 553.991 212.883 563.776 212.883C573.56 212.883 581.492 204.951 581.492 195.165Z" fill="#4359B1"/>
<path d="M555.071 192.228C554.924 192.228 554.78 192.233 554.639 192.241C554.496 192.249 554.373 192.259 554.271 192.268V194.845H554.903C555.599 194.845 556.123 194.751 556.476 194.561C556.827 194.372 557.004 194.02 557.004 193.504C557.004 193.255 556.959 193.049 556.869 192.885C556.777 192.723 556.648 192.592 556.481 192.492C556.313 192.393 556.109 192.325 555.869 192.287C555.629 192.248 555.363 192.228 555.071 192.228ZM554.941 190.515C556.273 190.515 557.296 190.748 558.009 191.216C558.721 191.685 559.079 192.452 559.079 193.517C559.079 194.592 558.717 195.367 557.996 195.844C557.273 196.321 556.244 196.559 554.903 196.559H554.271V199.549H552.26V190.747C552.699 190.66 553.163 190.6 553.652 190.565C554.143 190.532 554.572 190.515 554.941 190.515" fill="#F2D264"/>
<path d="M565.949 190.617H567.96V199.549H565.949V195.76H562.572V199.549H560.561V190.617H562.572V194.033H565.949V190.617Z" fill="#F2D264"/>
<path d="M572.831 192.228C572.684 192.228 572.54 192.233 572.399 192.241C572.257 192.249 572.135 192.259 572.032 192.268V194.845H572.663C573.36 194.845 573.883 194.751 574.236 194.561C574.588 194.372 574.764 194.02 574.764 193.504C574.764 193.255 574.719 193.049 574.629 192.885C574.537 192.723 574.409 192.592 574.243 192.492C574.075 192.393 573.869 192.325 573.629 192.287C573.389 192.248 573.123 192.228 572.831 192.228ZM572.703 190.515C574.035 190.515 575.056 190.748 575.769 191.216C576.481 191.685 576.839 192.452 576.839 193.517C576.839 194.592 576.479 195.367 575.757 195.844C575.035 196.321 574.004 196.559 572.663 196.559H572.032V199.549H570.021V190.747C570.459 190.66 570.924 190.6 571.413 190.565C571.903 190.532 572.332 190.515 572.703 190.515" fill="#F2D264"/>
<path d="M547.553 226.983C547.553 219.903 541.813 214.163 534.733 214.163C527.653 214.163 521.915 219.903 521.915 226.983C521.915 234.063 527.653 239.803 534.733 239.803C541.813 239.803 547.553 234.063 547.553 226.983Z" fill="#4359B1"/>
<path d="M532.955 228.403C532.955 228.899 532.897 229.367 532.787 229.805C532.673 230.243 532.48 230.627 532.203 230.952C531.924 231.279 531.548 231.537 531.076 231.727C530.603 231.916 530.007 232.012 529.287 232.012C528.624 232.012 528.053 231.932 527.576 231.771C527.099 231.609 526.704 231.423 526.392 231.208L527.152 229.44C527.435 229.605 527.737 229.752 528.059 229.879C528.38 230.005 528.731 230.068 529.111 230.068C529.665 230.068 530.065 229.932 530.309 229.659C530.552 229.385 530.675 228.928 530.675 228.285V221.68H532.955V228.403" fill="#F2D264"/>
<path d="M537.908 230.068C538.229 230.068 538.495 230.041 538.704 229.988C538.915 229.935 539.083 229.861 539.208 229.768C539.335 229.676 539.424 229.567 539.472 229.44C539.52 229.313 539.544 229.172 539.544 229.016C539.544 228.684 539.388 228.409 539.077 228.189C538.764 227.971 538.229 227.735 537.469 227.481C537.139 227.364 536.808 227.231 536.476 227.079C536.145 226.928 535.848 226.739 535.585 226.509C535.321 226.28 535.107 226.003 534.941 225.676C534.775 225.351 534.693 224.953 534.693 224.485C534.693 224.017 534.78 223.597 534.956 223.221C535.132 222.847 535.379 222.527 535.701 222.264C536.023 222.001 536.412 221.799 536.869 221.657C537.328 221.517 537.844 221.445 538.42 221.445C539.101 221.445 539.691 221.519 540.188 221.665C540.685 221.811 541.093 221.972 541.416 222.147L540.759 223.944C540.476 223.799 540.16 223.669 539.815 223.557C539.469 223.445 539.052 223.389 538.565 223.389C538.02 223.389 537.628 223.465 537.389 223.616C537.149 223.768 537.032 223.999 537.032 224.311C537.032 224.495 537.075 224.652 537.163 224.777C537.251 224.905 537.373 225.019 537.536 225.121C537.696 225.224 537.88 225.316 538.091 225.399C538.3 225.481 538.532 225.567 538.785 225.655C539.312 225.849 539.768 226.043 540.159 226.232C540.548 226.421 540.872 226.644 541.131 226.897C541.388 227.151 541.581 227.447 541.707 227.788C541.833 228.129 541.897 228.544 541.897 229.031C541.897 229.976 541.567 230.709 540.904 231.229C540.241 231.751 539.243 232.012 537.908 232.012C537.46 232.012 537.055 231.985 536.696 231.932C536.335 231.877 536.016 231.812 535.737 231.735C535.46 231.656 535.221 231.573 535.021 231.485C534.821 231.397 534.653 231.316 534.517 231.237L535.16 229.425C535.463 229.591 535.835 229.74 536.279 229.871C536.721 230.003 537.264 230.068 537.908 230.068" fill="#F2D264"/>
<path d="M554.688 255.947C554.688 251.181 550.824 247.317 546.059 247.317C541.292 247.317 537.428 251.181 537.428 255.947C537.428 260.712 541.292 264.576 546.059 264.576C550.824 264.576 554.688 260.712 554.688 255.947Z" fill="#4359B1"/>
<path d="M542.304 255.5C542.599 255.5 542.813 255.414 542.944 255.244C543.075 255.073 543.141 254.85 543.141 254.574V253.089C543.141 252.808 543.176 252.557 543.249 252.337C543.32 252.117 543.44 251.933 543.607 251.781C543.775 251.63 543.997 251.516 544.276 251.437C544.555 251.358 544.901 251.32 545.313 251.32H545.511V252.489H545.265C544.971 252.489 544.771 252.556 544.669 252.686C544.568 252.818 544.517 253.021 544.517 253.296V254.604C544.517 254.945 544.472 255.234 544.38 255.47C544.288 255.706 544.104 255.909 543.828 256.08C544.104 256.25 544.288 256.454 544.38 256.69C544.472 256.926 544.517 257.214 544.517 257.556V258.864C544.517 259.14 544.568 259.342 544.669 259.474C544.771 259.605 544.971 259.67 545.265 259.67H545.511V260.841H545.313C544.901 260.841 544.555 260.802 544.276 260.724C543.997 260.645 543.775 260.53 543.607 260.378C543.44 260.228 543.32 260.044 543.249 259.822C543.176 259.604 543.141 259.353 543.141 259.072V257.585C543.141 257.31 543.075 257.086 542.944 256.916C542.813 256.746 542.599 256.661 542.304 256.661V255.5" fill="#F2D264"/>
<path d="M549.801 256.661C549.505 256.661 549.292 256.746 549.16 256.916C549.031 257.086 548.964 257.31 548.964 257.585V259.072C548.964 259.353 548.928 259.604 548.856 259.822C548.784 260.044 548.664 260.228 548.496 260.378C548.329 260.53 548.107 260.645 547.828 260.724C547.549 260.802 547.203 260.841 546.791 260.841H546.593V259.67H546.839C547.135 259.67 547.332 259.605 547.435 259.474C547.536 259.342 547.588 259.14 547.588 258.864V257.556C547.588 257.214 547.633 256.926 547.724 256.69C547.816 256.454 548 256.25 548.275 256.08C548 255.909 547.816 255.706 547.724 255.47C547.633 255.234 547.588 254.945 547.588 254.604V253.296C547.588 253.021 547.536 252.818 547.435 252.686C547.332 252.556 547.135 252.489 546.839 252.489H546.593V251.32H546.791C547.203 251.32 547.549 251.358 547.828 251.437C548.107 251.516 548.329 251.63 548.496 251.781C548.664 251.933 548.784 252.117 548.856 252.337C548.928 252.557 548.964 252.808 548.964 253.089V254.574C548.964 254.85 549.031 255.073 549.16 255.244C549.292 255.414 549.505 255.5 549.801 255.5V256.661" fill="#F2D264"/>
</g>
<defs>
<clipPath id="clip0">
<rect width="1149.04" height="760.827" fill="white"/>
</clipPath>
</defs>
</svg>
